<?xml version="1.0" encoding="UTF-8" standalone="no"?>
<svg width="784px" height="943px" viewBox="0 0 784 943" version="1.1" xmlns="http://www.w3.org/2000/svg" xmlns:xlink="http://www.w3.org/1999/xlink">
    <!-- Generator: Sketch 3.7.2 (28276) - http://www.bohemiancoding.com/sketch -->
    <title>react-weekend copy 2</title>
    <desc>Created with Sketch.</desc>
    <defs>
        <rect id="path-1" x="0" y="0" width="768" height="848" rx="90"></rect>
        <mask id="mask-2" maskContentUnits="userSpaceOnUse" maskUnits="objectBoundingBox" x="-8" y="-8" width="784" height="864">
            <rect x="-8" y="-8" width="784" height="864" fill="white"></rect>
            <use xlink:href="#path-1" fill="black"></use>
        </mask>
    </defs>
    <g id="Page-1" stroke="none" stroke-width="1" fill="none" fill-rule="evenodd">
        <g id="a" transform="translate(-241.000000, -6721.000000)">
            <g id="react-weekend-copy-2" transform="translate(249.000000, 6721.000000)">
                <g id="body" transform="translate(0.000000, 87.000000)">
                    <g id="Rectangle-2">
                        <use fill="#222222" fill-rule="evenodd" xlink:href="#path-1"></use>
                        <use stroke="#222222" mask="url(#mask-2)" stroke-width="16" xlink:href="#path-1"></use>
                    </g>
                    <g id="Group" transform="translate(41.000000, 288.000000)">
                        <rect id="Rectangle-149" fill="#323232" x="0" y="19" width="105" height="105"></rect>
                        <rect id="Rectangle-149-Copy-4" fill="#323232" x="145" y="19" width="105" height="105"></rect>
                        <rect id="Rectangle-149-Copy" fill="#323232" x="290" y="19" width="105" height="105"></rect>
                        <rect id="Rectangle-149-Copy-2" fill="#323232" x="435" y="19" width="105" height="105"></rect>
                        <g id="react-logo-official" transform="translate(552.000000, 0.000000)">
                            <ellipse id="Oval" fill="#00D8FF" cx="81.0087161" cy="71.2385828" rx="15.0780223" ry="15.0395828"></ellipse>
                            <path d="M81.0087161,40.6599665 C101.253006,40.6599665 120.059432,43.5574403 134.239391,48.4266352 C151.32423,54.2932327 161.828683,63.1862138 161.828683,71.2385828 C161.828683,79.6300147 150.695766,89.0770084 132.349191,95.1402683 C118.478204,99.7243627 100.226004,102.11699 81.0087161,102.11699 C61.3060297,102.11699 42.648679,99.8709602 28.6247087,95.0896038 C10.8780445,89.0392348 0.188749536,79.4696268 0.188749536,71.2385828 C0.188749536,63.2515681 10.2183228,54.4275388 27.0630167,48.5696352 C41.2958738,43.6203962 60.5666605,40.6599665 81.0087161,40.6599665 L81.0087161,40.6599665 Z" id="Shape" stroke="#00D8FF" stroke-width="7.2"></path>
                            <path d="M54.3213952,56.037413 C64.4348237,38.5452453 76.3464824,23.7427966 87.6591317,13.9228637 C101.289373,2.09133753 114.260494,-2.54252201 121.253844,1.48006499 C128.54174,5.67203354 131.184835,20.0113061 127.285113,38.8927023 C124.336653,53.1681195 117.296416,70.1344549 107.696037,86.739543 C97.8531095,103.764038 86.5819369,118.762849 75.4231725,128.491945 C61.3027236,140.803736 47.651744,145.25892 40.5030056,141.146996 C33.5664601,137.156786 30.9134471,124.082629 34.2412096,106.601254 C37.0529165,91.8305828 44.1090835,73.700761 54.3213952,56.037413 L54.3213952,56.037413 Z" id="Shape" stroke="#00D8FF" stroke-width="7.2"></path>
                            <path d="M54.3469425,86.7839119 C44.2043599,69.3085325 37.2960668,51.6224004 34.4164341,36.9422662 C30.9468089,19.254935 33.3999518,5.73139203 40.3866902,1.69711321 C47.6673729,-2.50714675 61.4421818,2.36984277 75.8944453,15.1696918 C86.8214805,24.8469245 98.041859,39.4038449 107.670189,55.993044 C117.54167,73.0010503 124.940471,90.2318008 127.818301,104.73356 C131.460145,123.084627 128.512286,137.106122 121.37046,141.230038 C114.440527,145.231639 101.759443,140.995002 88.2374026,129.388618 C76.8123451,119.582176 64.5890093,104.430172 54.3469425,86.7839119 L54.3469425,86.7839119 Z" id="Shape" stroke="#00D8FF" stroke-width="7.2"></path>
                        </g>
                    </g>
                    <path d="M242.637,411.85 C241.632328,411.85 240.924502,411.781501 240.5135,411.6445 C240.102498,411.507499 239.668669,411.119337 239.212,410.48 L218.251,369.928 L202.633,369.928 L202.633,410.069 C202.633,411.256339 202.039339,411.85 200.852,411.85 L188.659,411.85 C187.562995,411.85 187.015,411.256339 187.015,410.069 L187.015,310.196 C187.015,309.739331 187.174832,309.351168 187.4945,309.0315 C187.814168,308.711832 188.202331,308.552 188.659,308.552 L216.333,308.552 C226.471051,308.552 234.508304,311.017975 240.445,315.95 C246.381696,320.882025 249.35,328.553948 249.35,338.966 C249.35,345.633367 247.888681,351.273144 244.966,355.8855 C242.043319,360.497856 238.024692,363.991321 232.91,366.366 L255.789,409.932 C256.51967,411.210673 255.971676,411.85 254.145,411.85 L242.637,411.85 Z M202.633,322.937 L202.633,355.68 L213.867,355.68 C219.89503,355.68 224.689982,354.378513 228.252,351.7755 C231.814018,349.172487 233.595,344.85703 233.595,338.829 C233.595,333.622974 232.202181,329.672847 229.4165,326.9785 C226.630819,324.284153 222.909023,322.937 218.251,322.937 L202.633,322.937 Z M330.099,377.326 C330.099,378.05667 329.893502,378.604665 329.4825,378.97 C329.071498,379.335335 328.637669,379.518 328.181,379.518 L283.108,379.518 C283.564669,385.637364 285.48265,390.637814 288.862,394.5195 C292.24135,398.401186 296.853637,400.342 302.699,400.342 C305.713015,400.342 309.137981,399.953837 312.974,399.1775 C316.810019,398.401163 320.326317,397.05401 323.523,395.136 C324.162337,394.770665 324.573332,394.816331 324.756,395.273 C324.938668,395.729669 325.03,396.32333 325.03,397.054 L325.03,406.507 C325.03,407.329004 324.893001,407.968331 324.619,408.425 C324.344999,408.881669 323.797004,409.338331 322.975,409.795 C320.234986,411.256341 317.015519,412.306663 313.3165,412.946 C309.617482,413.585337 305.850019,413.905 302.014,413.905 C290.68861,413.905 282.126196,410.502867 276.3265,403.6985 C270.526804,396.894133 267.627,386.916066 267.627,373.764 C267.627,368.831975 268.266327,363.991357 269.545,359.242 C270.823673,354.492643 272.764487,350.245685 275.3675,346.501 C277.970513,342.756315 281.281313,339.742345 285.3,337.459 C289.318687,335.175655 294.067973,334.034 299.548,334.034 C305.119361,334.034 309.845814,335.084323 313.7275,337.185 C317.609186,339.285677 320.782988,342.116982 323.249,345.679 C325.715012,349.241018 327.495995,353.396643 328.592,358.146 C329.688006,362.895357 330.236,367.964306 330.236,373.353 C330.236,373.992337 330.213167,374.722996 330.1675,375.545 C330.121833,376.367004 330.099,376.960665 330.099,377.326 L330.099,377.326 Z M300.096,347.186 C297.629988,347.186 295.43801,347.733995 293.52,348.83 C291.60199,349.926005 289.958007,351.341658 288.588,353.077 C287.217993,354.812342 286.099171,356.821655 285.2315,359.105 C284.363829,361.388345 283.747335,363.671655 283.382,365.955 L314.755,365.955 C314.755,364.128324 314.45817,362.119011 313.8645,359.927 C313.27083,357.734989 312.380339,355.702843 311.193,353.8305 C310.005661,351.958157 308.498676,350.382673 306.672,349.104 C304.845324,347.825327 302.653346,347.186 300.096,347.186 L300.096,347.186 Z M390.024,411.713 C389.384664,411.713 388.973668,411.644501 388.791,411.5075 C388.608333,411.370499 388.517,411.028003 388.517,410.48 L388.517,404.315 C386.233655,407.511683 383.333851,409.909159 379.8175,411.5075 C376.301149,413.105841 372.762018,413.905 369.2,413.905 C365.455315,413.905 362.007516,413.402672 358.8565,412.398 C355.705484,411.393328 353.011178,409.886343 350.7735,407.877 C348.535822,405.867657 346.777673,403.378848 345.499,400.4105 C344.220327,397.442152 343.581,393.994353 343.581,390.067 C343.581,385.408977 344.402992,381.321851 346.047,377.8055 C347.691008,374.289149 350.271149,371.366512 353.7875,369.0375 C357.303851,366.708488 361.801973,364.973172 367.282,363.8315 C372.762027,362.689828 379.383628,362.119 387.147,362.119 C387.147,360.383658 386.964335,358.648342 386.599,356.913 C386.233665,355.177658 385.617171,353.625007 384.7495,352.255 C383.881829,350.884993 382.671675,349.766171 381.119,348.8985 C379.566326,348.030829 377.602679,347.597 375.228,347.597 C371.11798,347.597 367.396183,348.144995 364.0625,349.241 C360.728817,350.337005 357.600681,351.798324 354.678,353.625 C353.216659,354.538338 352.234836,354.949334 351.7325,354.858 C351.230164,354.766666 350.979,354.264338 350.979,353.351 L350.979,342.939 C350.979,342.573665 350.956167,342.185502 350.9105,341.7745 C350.864833,341.363498 350.933333,341.021001 351.116,340.747 C351.390001,340.381665 352.074995,339.879337 353.171,339.24 C356.276349,337.687326 359.450151,336.408672 362.6925,335.404 C365.93485,334.399328 370.021975,333.897 374.954,333.897 C384.178713,333.897 391.005811,336.134644 395.4355,340.61 C399.865189,345.085356 402.08,352.117952 402.08,361.708 L402.08,394.177 C402.08,396.734346 402.102833,399.405819 402.1485,402.1915 C402.194167,404.977181 402.353999,407.420323 402.628,409.521 C402.810668,410.982341 402.308339,411.713 401.121,411.713 L390.024,411.713 Z M365.775,378.833 C361.390978,381.299012 359.199,384.997975 359.199,389.93 C359.199,393.400684 360.203657,396.003658 362.213,397.739 C364.222343,399.474342 366.91665,400.342 370.296,400.342 C375.502026,400.342 379.680484,398.424019 382.8315,394.588 C385.982516,390.751981 387.558,384.769707 387.558,376.641 L387.558,375.134 C377.419949,375.134 370.159022,376.366988 365.775,378.833 L365.775,378.833 Z M475.02,411.576 C474.015328,411.941335 472.782341,412.260999 471.321,412.535 C469.85966,412.809001 468.284175,413.037332 466.5945,413.22 C464.904825,413.402668 463.123843,413.516833 461.2515,413.5625 C459.379157,413.608167 457.575342,413.585334 455.84,413.494 C450.085971,413.128665 444.994189,411.872844 440.5645,409.7265 C436.134811,407.580156 432.413015,404.771684 429.399,401.301 C426.384985,397.830316 424.124508,393.74319 422.6175,389.0395 C421.110493,384.33581 420.357,379.244027 420.357,373.764 C420.357,368.009971 421.270324,362.712691 423.097,357.872 C424.923676,353.031309 427.503817,348.852851 430.8375,345.3365 C434.171183,341.820149 438.166977,339.10301 442.825,337.185 C447.483023,335.26699 452.688971,334.308 458.443,334.308 C461.274348,334.308 464.128486,334.467832 467.0055,334.7875 C469.882515,335.107168 472.690986,335.723662 475.431,336.637 C475.796335,336.728334 476.070333,336.910999 476.253,337.185 C476.435668,337.459001 476.481334,338.006996 476.39,338.829 L475.157,348.282 C475.065666,348.921337 474.860168,349.377999 474.5405,349.652 C474.220832,349.926001 473.650004,349.971668 472.828,349.789 C470.818657,349.05833 468.466847,348.556001 465.7725,348.282 C463.078153,348.007999 460.543679,347.871 458.169,347.871 C450.770963,347.871 445.154019,350.245643 441.318,354.995 C437.481981,359.744357 435.564,366.000628 435.564,373.764 C435.564,381.253371 437.367815,387.28131 440.9755,391.848 C444.583185,396.414689 449.811966,399.108996 456.662,399.931 C462.964032,400.66167 468.580975,400.250674 473.513,398.698 C474.426338,398.332665 474.997166,398.286999 475.2255,398.561 C475.453835,398.835001 475.613666,399.245997 475.705,399.794 L476.39,409.247 C476.481334,409.97767 476.458501,410.502832 476.3215,410.8225 C476.184499,411.142168 475.75067,411.393332 475.02,411.576 L475.02,411.576 Z M530.424,410.617 C529.145327,411.439004 527.113181,412.192497 524.3275,412.8775 C521.54182,413.562503 518.550683,413.905 515.354,413.905 C511.517981,413.905 508.458345,413.105841 506.175,411.5075 C503.891655,409.909159 502.202006,408.059677 501.106,405.959 C499.827327,403.584321 499.051002,400.798683 498.777,397.602 C498.502999,394.405317 498.366,390.067027 498.366,384.587 L498.366,350.2 L486.995,350.2 C486.538331,350.2 486.150168,350.040168 485.8305,349.7205 C485.510832,349.400832 485.351,349.012669 485.351,348.556 L485.351,337.733 C485.351,337.276331 485.510832,336.888168 485.8305,336.5685 C486.150168,336.248832 486.538331,336.089 486.995,336.089 L498.366,336.089 L498.366,316.909 C498.366,316.452331 498.548665,316.064168 498.914,315.7445 C499.279335,315.424832 499.690331,315.265 500.147,315.265 L511.244,315.265 C511.792003,315.265 512.225832,315.424832 512.5455,315.7445 C512.865168,316.064168 513.025,316.452331 513.025,316.909 L513.025,336.089 L526.177,336.089 C526.633669,336.089 527.021832,336.248832 527.3415,336.5685 C527.661168,336.888168 527.821,337.276331 527.821,337.733 L527.821,348.556 C527.821,349.012669 527.661168,349.400832 527.3415,349.7205 C527.021832,350.040168 526.633669,350.2 526.177,350.2 L513.025,350.2 L513.025,385.546 C513.025,391.756698 513.161999,395.683992 513.436,397.328 C513.801335,398.972008 514.668993,399.976665 516.039,400.342 C517.409007,400.707335 518.961658,400.798668 520.697,400.616 C521.884339,400.433332 523.20866,400.182168 524.67,399.8625 C526.131341,399.542832 527.409995,399.154669 528.506,398.698 C528.962669,398.515332 529.282333,398.492499 529.465,398.6295 C529.647668,398.766501 529.830333,399.20033 530.013,399.931 L531.109,408.973 C531.200334,409.612337 530.972003,410.160331 530.424,410.617 L530.424,410.617 Z" id="React" fill="#00D8FF"></path>
                    <g id="Group" transform="translate(12.000000, 448.000000)">
                        <rect id="Rectangle-149-Copy-4" fill="#323232" x="174" y="19" width="105" height="105"></rect>
                        <rect id="Rectangle-149-Copy" fill="#323232" x="319" y="19" width="105" height="105"></rect>
                        <rect id="Rectangle-149-Copy-2" fill="#323232" x="464" y="19" width="105" height="105"></rect>
                        <rect id="Rectangle-149-Copy-3" fill="#323232" x="609" y="19" width="105" height="105"></rect>
                        <g id="react-logo-official-copy">
                            <ellipse id="Oval" fill="#00D8FF" cx="81.0087161" cy="71.2385828" rx="15.0780223" ry="15.0395828"></ellipse>
                            <path d="M81.0087161,40.6599665 C101.253006,40.6599665 120.059432,43.5574403 134.239391,48.4266352 C151.32423,54.2932327 161.828683,63.1862138 161.828683,71.2385828 C161.828683,79.6300147 150.695766,89.0770084 132.349191,95.1402683 C118.478204,99.7243627 100.226004,102.11699 81.0087161,102.11699 C61.3060297,102.11699 42.648679,99.8709602 28.6247087,95.0896038 C10.8780445,89.0392348 0.188749536,79.4696268 0.188749536,71.2385828 C0.188749536,63.2515681 10.2183228,54.4275388 27.0630167,48.5696352 C41.2958738,43.6203962 60.5666605,40.6599665 81.0087161,40.6599665 L81.0087161,40.6599665 Z" id="Shape" stroke="#00D8FF" stroke-width="7.2"></path>
                            <path d="M54.3213952,56.037413 C64.4348237,38.5452453 76.3464824,23.7427966 87.6591317,13.9228637 C101.289373,2.09133753 114.260494,-2.54252201 121.253844,1.48006499 C128.54174,5.67203354 131.184835,20.0113061 127.285113,38.8927023 C124.336653,53.1681195 117.296416,70.1344549 107.696037,86.739543 C97.8531095,103.764038 86.5819369,118.762849 75.4231725,128.491945 C61.3027236,140.803736 47.651744,145.25892 40.5030056,141.146996 C33.5664601,137.156786 30.9134471,124.082629 34.2412096,106.601254 C37.0529165,91.8305828 44.1090835,73.700761 54.3213952,56.037413 L54.3213952,56.037413 Z" id="Shape" stroke="#00D8FF" stroke-width="7.2"></path>
                            <path d="M54.3469425,86.7839119 C44.2043599,69.3085325 37.2960668,51.6224004 34.4164341,36.9422662 C30.9468089,19.254935 33.3999518,5.73139203 40.3866902,1.69711321 C47.6673729,-2.50714675 61.4421818,2.36984277 75.8944453,15.1696918 C86.8214805,24.8469245 98.041859,39.4038449 107.670189,55.993044 C117.54167,73.0010503 124.940471,90.2318008 127.818301,104.73356 C131.460145,123.084627 128.512286,137.106122 121.37046,141.230038 C114.440527,145.231639 101.759443,140.995002 88.2374026,129.388618 C76.8123451,119.582176 64.5890093,104.430172 54.3469425,86.7839119 L54.3469425,86.7839119 Z" id="Shape" stroke="#00D8FF" stroke-width="7.2"></path>
                        </g>
                    </g>
                    <g id="Group" transform="translate(41.000000, 460.000000)">
                        <rect id="Rectangle-149" fill="#323232" x="0" y="167" width="105" height="105"></rect>
                        <rect id="Rectangle-149-Copy-4" fill="#323232" x="145" y="167" width="105" height="105"></rect>
                        <rect id="Rectangle-149-Copy" fill="#323232" x="290" y="167" width="105" height="105"></rect>
                        <rect id="Rectangle-149-Copy-2" fill="#323232" x="435" y="167" width="105" height="105"></rect>
                        <path d="M254.011,111.6445 C253.736999,111.781501 253.23467,111.85 252.504,111.85 L239.489,111.85 C238.75833,111.85 238.256001,111.781501 237.982,111.6445 C237.707999,111.507499 237.479668,111.07367 237.297,110.343 L214.555,32.527 L191.813,110.343 C191.630332,111.07367 191.424834,111.507499 191.1965,111.6445 C190.968166,111.781501 190.443004,111.85 189.621,111.85 L176.606,111.85 C175.87533,111.85 175.373001,111.781501 175.099,111.6445 C174.824999,111.507499 174.596668,111.07367 174.414,110.343 L145.507,10.47 C145.324332,9.83066347 145.324332,9.35116827 145.507,9.0315 C145.689668,8.71183174 146.374661,8.552 147.562,8.552 L158.933,8.552 C159.572337,8.552 160.028999,8.62049932 160.303,8.7575 C160.577001,8.89450069 160.805332,9.28266347 160.988,9.922 L183.73,87.053 L205.924,9.922 C206.106668,9.28266347 206.357832,8.89450069 206.6775,8.7575 C206.997168,8.62049932 207.476663,8.552 208.116,8.552 L220.994,8.552 C221.633337,8.552 222.112832,8.62049932 222.4325,8.7575 C222.752168,8.89450069 223.003332,9.28266347 223.186,9.922 L245.38,87.053 L268.122,9.922 C268.304668,9.28266347 268.532999,8.89450069 268.807,8.7575 C269.081001,8.62049932 269.537663,8.552 270.177,8.552 L281.548,8.552 C282.735339,8.552 283.420332,8.71183174 283.603,9.0315 C283.785668,9.35116827 283.785668,9.83066347 283.603,10.47 L254.696,110.343 C254.513332,111.07367 254.285001,111.507499 254.011,111.6445 L254.011,111.6445 Z M340.056,77.326 C340.056,78.0566703 339.850502,78.6046648 339.4395,78.97 C339.028498,79.3353352 338.594669,79.518 338.138,79.518 L293.065,79.518 C293.521669,85.6373639 295.43965,90.6378139 298.819,94.5195 C302.19835,98.4011861 306.810637,100.342 312.656,100.342 C315.670015,100.342 319.094981,99.9538372 322.931,99.1775 C326.767019,98.4011628 330.283317,97.0540096 333.48,95.136 C334.119336,94.7706648 334.530332,94.8163311 334.713,95.273 C334.895667,95.729669 334.987,96.3233297 334.987,97.054 L334.987,106.507 C334.987,107.329004 334.850001,107.968331 334.576,108.425 C334.301998,108.881669 333.754004,109.338331 332.932,109.795 C330.191986,111.256341 326.972518,112.306663 323.2735,112.946 C319.574481,113.585337 315.807019,113.905 311.971,113.905 C300.64561,113.905 292.083195,110.502867 286.2835,103.6985 C280.483804,96.8941326 277.584,86.9160658 277.584,73.764 C277.584,68.8319753 278.223327,63.9913571 279.502,59.242 C280.780673,54.4926429 282.721487,50.2456854 285.3245,46.501 C287.927513,42.7563146 291.238313,39.7423448 295.257,37.459 C299.275687,35.1756553 304.024972,34.034 309.505,34.034 C315.076361,34.034 319.802814,35.0843228 323.6845,37.185 C327.566186,39.2856772 330.739987,42.1169822 333.206,45.679 C335.672012,49.2410178 337.452994,53.3966429 338.549,58.146 C339.645005,62.8953571 340.193,67.9643064 340.193,73.353 C340.193,73.9923365 340.170167,74.7229959 340.1245,75.545 C340.078833,76.3670041 340.056,76.9606648 340.056,77.326 L340.056,77.326 Z M310.053,47.186 C307.586987,47.186 305.395009,47.7339945 303.477,48.83 C301.55899,49.9260055 299.915007,51.341658 298.545,53.077 C297.174993,54.812342 296.056171,56.8216553 295.1885,59.105 C294.320829,61.3883448 293.704335,63.6716553 293.339,65.955 L324.712,65.955 C324.712,64.1283242 324.415169,62.119011 323.8215,59.927 C323.22783,57.734989 322.337339,55.7028427 321.15,53.8305 C319.962661,51.9581573 318.455676,50.3826731 316.629,49.104 C314.802324,47.8253269 312.610346,47.186 310.053,47.186 L310.053,47.186 Z M406.921,77.326 C406.921,78.0566703 406.715502,78.6046648 406.3045,78.97 C405.893498,79.3353352 405.459669,79.518 405.003,79.518 L359.93,79.518 C360.386669,85.6373639 362.304649,90.6378139 365.684,94.5195 C369.06335,98.4011861 373.675637,100.342 379.521,100.342 C382.535015,100.342 385.95998,99.9538372 389.796,99.1775 C393.632019,98.4011628 397.148317,97.0540096 400.345,95.136 C400.984336,94.7706648 401.395332,94.8163311 401.578,95.273 C401.760667,95.729669 401.852,96.3233297 401.852,97.054 L401.852,106.507 C401.852,107.329004 401.715001,107.968331 401.441,108.425 C401.166998,108.881669 400.619004,109.338331 399.797,109.795 C397.056986,111.256341 393.837518,112.306663 390.1385,112.946 C386.439481,113.585337 382.672019,113.905 378.836,113.905 C367.51061,113.905 358.948195,110.502867 353.1485,103.6985 C347.348804,96.8941326 344.449,86.9160658 344.449,73.764 C344.449,68.8319753 345.088327,63.9913571 346.367,59.242 C347.645673,54.4926429 349.586487,50.2456854 352.1895,46.501 C354.792513,42.7563146 358.103313,39.7423448 362.122,37.459 C366.140686,35.1756553 370.889972,34.034 376.37,34.034 C381.941361,34.034 386.667814,35.0843228 390.5495,37.185 C394.431186,39.2856772 397.604987,42.1169822 400.071,45.679 C402.537012,49.2410178 404.317994,53.3966429 405.414,58.146 C406.510005,62.8953571 407.058,67.9643064 407.058,73.353 C407.058,73.9923365 407.035167,74.7229959 406.9895,75.545 C406.943833,76.3670041 406.921,76.9606648 406.921,77.326 L406.921,77.326 Z M376.918,47.186 C374.451987,47.186 372.260009,47.7339945 370.342,48.83 C368.42399,49.9260055 366.780006,51.341658 365.41,53.077 C364.039993,54.812342 362.921171,56.8216553 362.0535,59.105 C361.185829,61.3883448 360.569335,63.6716553 360.204,65.955 L391.577,65.955 C391.577,64.1283242 391.280169,62.119011 390.6865,59.927 C390.09283,57.734989 389.202339,55.7028427 388.015,53.8305 C386.82766,51.9581573 385.320675,50.3826731 383.494,49.104 C381.667324,47.8253269 379.475346,47.186 376.918,47.186 L376.918,47.186 Z M460.359999,111.987 C459.355328,111.987 458.647501,111.872834 458.236499,111.6445 C457.825497,111.416166 457.391668,110.93667 456.934999,110.206 L435.014999,78.833 L428.575999,86.231 L428.575999,110.343 C428.575999,111.439005 427.982339,111.987 426.794999,111.987 L415.697999,111.987 C415.24133,111.987 414.853168,111.827168 414.533499,111.5075 C414.213831,111.187832 414.053999,110.799669 414.053999,110.343 L414.053999,2.387 C414.053999,1.93033105 414.213831,1.54216827 414.533499,1.2225 C414.853168,0.902831735 415.24133,0.743 415.697999,0.743 L426.794999,0.743 C427.343002,0.743 427.776831,0.902831735 428.096499,1.2225 C428.416168,1.54216827 428.575999,1.93033105 428.575999,2.387 L428.575999,65.27 L454.605999,37.322 C455.33667,36.4999959 456.067329,36.089 456.797999,36.089 L470.360999,36.089 C472.096341,36.089 472.370339,36.7283269 471.182999,38.007 L444.467999,67.736 L474.196999,110.206 C475.110337,111.393339 474.790674,111.987 473.237999,111.987 L460.359999,111.987 Z M537.225999,77.326 C537.225999,78.0566703 537.020501,78.6046648 536.609499,78.97 C536.198497,79.3353352 535.764668,79.518 535.307999,79.518 L490.234999,79.518 C490.691668,85.6373639 492.609649,90.6378139 495.988999,94.5195 C499.368349,98.4011861 503.980637,100.342 509.825999,100.342 C512.840014,100.342 516.26498,99.9538372 520.100999,99.1775 C523.937018,98.4011628 527.453317,97.0540096 530.649999,95.136 C531.289336,94.7706648 531.700332,94.8163311 531.882999,95.273 C532.065667,95.729669 532.156999,96.3233297 532.156999,97.054 L532.156999,106.507 C532.156999,107.329004 532.020001,107.968331 531.745999,108.425 C531.471998,108.881669 530.924003,109.338331 530.101999,109.795 C527.361986,111.256341 524.142518,112.306663 520.443499,112.946 C516.744481,113.585337 512.977018,113.905 509.140999,113.905 C497.815609,113.905 489.253195,110.502867 483.453499,103.6985 C477.653804,96.8941326 474.753999,86.9160658 474.753999,73.764 C474.753999,68.8319753 475.393326,63.9913571 476.671999,59.242 C477.950672,54.4926429 479.891486,50.2456854 482.494499,46.501 C485.097512,42.7563146 488.408312,39.7423448 492.426999,37.459 C496.445686,35.1756553 501.194972,34.034 506.674999,34.034 C512.24636,34.034 516.972813,35.0843228 520.854499,37.185 C524.736185,39.2856772 527.909987,42.1169822 530.375999,45.679 C532.842012,49.2410178 534.622994,53.3966429 535.718999,58.146 C536.815005,62.8953571 537.362999,67.9643064 537.362999,73.353 C537.362999,73.9923365 537.340166,74.7229959 537.294499,75.545 C537.248832,76.3670041 537.225999,76.9606648 537.225999,77.326 L537.225999,77.326 Z M507.222999,47.186 C504.756987,47.186 502.565009,47.7339945 500.646999,48.83 C498.72899,49.9260055 497.085006,51.341658 495.714999,53.077 C494.344992,54.812342 493.22617,56.8216553 492.358499,59.105 C491.490828,61.3883448 490.874334,63.6716553 490.508999,65.955 L521.881999,65.955 C521.881999,64.1283242 521.585169,62.119011 520.991499,59.927 C520.39783,57.734989 519.507339,55.7028427 518.319999,53.8305 C517.13266,51.9581573 515.625675,50.3826731 513.798999,49.104 C511.972323,47.8253269 509.780345,47.186 507.222999,47.186 L507.222999,47.186 Z M593.815999,111.713 C593.35933,111.713 592.971167,111.507502 592.651499,111.0965 C592.331831,110.685498 592.171999,110.251669 592.171999,109.795 L592.171999,66.229 C592.171999,59.6529671 591.144509,54.9036813 589.089499,51.981 C587.034489,49.0583187 583.815021,47.597 579.430999,47.597 C573.402969,47.597 568.950513,49.2638167 566.073499,52.5975 C563.196485,55.9311833 561.757999,60.7489685 561.757999,67.051 L561.757999,109.932 C561.757999,111.119339 561.210005,111.713 560.113999,111.713 L548.742999,111.713 C548.28633,111.713 547.898167,111.507502 547.578499,111.0965 C547.258831,110.685498 547.098999,110.251669 547.098999,109.795 L547.098999,55.269 C547.098999,51.798316 547.076166,48.4646827 547.030499,45.268 C546.984832,42.0713174 546.870667,39.5596758 546.687999,37.733 C546.505331,36.5456607 547.144658,35.952 548.605999,35.952 L559.428999,35.952 C560.433671,35.952 560.844667,36.3173297 560.661999,37.048 L560.524999,41.98 C562.808344,39.787989 565.548316,37.9156744 568.744999,36.363 C571.941682,34.8103256 575.640645,34.034 579.841999,34.034 C588.610043,34.034 595.300143,36.6141409 599.912499,41.7745 C604.524855,46.9348591 606.830999,54.4012845 606.830999,64.174 L606.830999,109.932 C606.830999,111.119339 606.283005,111.713 605.186999,111.713 L593.815999,111.713 Z M670.270999,112.124 C668.900992,112.124 668.215999,111.393341 668.215999,109.932 L668.215999,104.726 C666.389323,107.283346 663.695017,109.429658 660.132999,111.165 C656.570981,112.900342 652.96335,113.768 649.309999,113.768 C644.377974,113.768 639.971185,112.831843 636.089499,110.9595 C632.207813,109.087157 628.919846,106.392851 626.225499,102.8765 C623.531152,99.3601491 621.476173,95.0903585 620.060499,90.067 C618.644825,85.0436416 617.936999,79.3810315 617.936999,73.079 C617.936999,66.9596361 618.667658,61.4111916 620.128999,56.4335 C621.590339,51.4558084 623.668152,47.231684 626.362499,43.761 C629.056846,40.290316 632.344813,37.5960096 636.226499,35.678 C640.108185,33.7599904 644.469308,32.801 649.309999,32.801 C652.96335,32.801 656.411149,33.5316594 659.653499,34.993 C662.895848,36.4543406 665.749987,38.5093201 668.215999,41.158 L668.215999,2.113 C668.215999,1.38232968 668.330164,0.902834475 668.558499,0.6745 C668.786833,0.446165525 669.220662,0.332 669.859999,0.332 L681.093999,0.332 C682.281338,0.332 682.874999,0.92566073 682.874999,2.113 L682.874999,109.932 C682.874999,110.66267 682.646668,111.210665 682.189999,111.576 C681.73333,111.941335 681.231002,112.124 680.682999,112.124 L670.270999,112.124 Z M650.816999,46.775 C645.154304,46.775 640.816014,49.0811436 637.801999,53.6935 C634.787984,58.3058564 633.280999,64.7676251 633.280999,73.079 C633.280999,82.0297114 634.83365,88.7426443 637.938999,93.218 C641.044348,97.6933557 645.336971,99.931 650.816999,99.931 C653.191677,99.931 655.429322,99.3373393 657.529999,98.15 C659.630676,96.9626607 661.480158,95.2273448 663.078499,92.944 C664.67684,90.6606553 665.932661,87.8521833 666.845999,84.5185 C667.759337,81.1848167 668.215999,77.3716881 668.215999,73.079 C668.215999,64.2196224 666.686181,57.620855 663.626499,53.2825 C660.566817,48.944145 656.297026,46.775 650.816999,46.775 L650.816999,46.775 Z" id="Weekend" fill="#FFFFFF"></path>
                    </g>
                    <rect id="Rectangle-2" fill="#7EECFF" opacity="0.774078825" x="0" y="0" width="768" height="234" rx="90"></rect>
                </g>
                <path d="M240.48,920.94 C239.559995,922.340007 238.290008,923.339997 236.67,923.94 C235.049992,924.540003 233.440008,924.84 231.84,924.84 C231.039996,924.84 230.190004,924.81 229.29,924.75 C228.389995,924.69 227.680003,924.580001 227.16,924.42 C226.759998,924.299999 226.500001,924.150001 226.38,923.97 C226.259999,923.789999 226.2,923.480002 226.2,923.04 L226.2,917.52 C226.2,916.959997 226.259999,916.620001 226.38,916.5 C226.500001,916.379999 226.899997,916.419999 227.58,916.62 C228.580005,916.860001 229.859992,916.98 231.42,916.98 C232.340005,916.98 233.049997,916.580004 233.55,915.78 C234.050003,914.979996 234.3,913.500011 234.3,911.34 L234.3,879.3 C234.3,878.499996 234.659996,878.1 235.38,878.1 L241.2,878.1 C242.040004,878.1 242.46,878.499996 242.46,879.3 L242.46,911.04 C242.46,912.920009 242.330001,914.739991 242.07,916.5 C241.809999,918.260009 241.280004,919.739994 240.48,920.94 L240.48,920.94 Z M272.664526,924.42 C272.224523,924.42 271.934526,924.360001 271.794526,924.24 C271.654525,924.119999 271.584526,923.900002 271.584526,923.58 L271.584526,921.3 C271.224524,921.860003 270.754528,922.369998 270.174526,922.83 C269.594523,923.290002 268.964529,923.679998 268.284526,924 C267.604522,924.320002 266.904529,924.579999 266.184526,924.78 C265.464522,924.980001 264.784529,925.08 264.144526,925.08 C260.224506,925.08 257.284535,923.920012 255.324526,921.6 C253.364516,919.279988 252.384526,915.980021 252.384526,911.7 L252.384526,891.78 C252.384526,891.339998 252.464525,891.020001 252.624526,890.82 C252.784526,890.619999 253.084523,890.52 253.524526,890.52 L259.044526,890.52 C259.524528,890.52 259.844525,890.649999 260.004526,890.91 C260.164526,891.170001 260.244526,891.479998 260.244526,891.84 L260.244526,910.68 C260.244526,912.080007 260.354524,913.229995 260.574526,914.13 C260.794527,915.030005 261.104524,915.749997 261.504526,916.29 C261.904528,916.830003 262.394523,917.209999 262.974526,917.43 C263.554528,917.650001 264.204522,917.76 264.924526,917.76 C266.684534,917.76 268.174519,917.070007 269.394526,915.69 C270.614532,914.309993 271.224526,912.160015 271.224526,909.24 L271.224526,891.78 C271.224526,891.339998 271.304525,891.020001 271.464526,890.82 C271.624526,890.619999 271.924523,890.52 272.364526,890.52 L277.944526,890.52 C278.424528,890.52 278.734525,890.659999 278.874526,890.94 C279.014526,891.220001 279.084526,891.539998 279.084526,891.9 L279.084526,915.96 C279.084526,917.160006 279.104525,918.409994 279.144526,919.71 C279.184526,921.010007 279.204526,922.159995 279.204526,923.16 C279.204526,923.680003 279.154526,924.019999 279.054526,924.18 C278.954525,924.340001 278.624528,924.42 278.064526,924.42 L272.664526,924.42 Z M297.169051,923.1 C297.169051,923.580002 297.089052,923.899999 296.929051,924.06 C296.76905,924.220001 296.469053,924.3 296.029051,924.3 L290.449051,924.3 C289.969049,924.3 289.649052,924.200001 289.489051,924 C289.32905,923.799999 289.249051,923.480002 289.249051,923.04 L289.249051,899.58 C289.249051,898.059992 289.259051,896.520008 289.279051,894.96 C289.299051,893.399992 289.249052,892.220004 289.129051,891.42 C289.049051,890.979998 289.08905,890.700001 289.249051,890.58 C289.409052,890.459999 289.769048,890.4 290.329051,890.4 L296.029051,890.4 C296.469053,890.4 296.749051,890.44 296.869051,890.52 C296.989052,890.6 297.049051,890.819998 297.049051,891.18 L297.049051,893.46 C297.889055,892.579996 298.979044,891.770004 300.319051,891.03 C301.659058,890.289996 303.029044,889.92 304.429051,889.92 C308.429071,889.92 311.359042,891.059989 313.219051,893.34 C315.07906,895.620011 316.009051,898.939978 316.009051,903.3 L316.009051,923.1 C316.009051,923.580002 315.929052,923.899999 315.769051,924.06 C315.60905,924.220001 315.309053,924.3 314.869051,924.3 L309.289051,924.3 C308.489047,924.3 308.089051,923.880004 308.089051,923.04 L308.089051,904.5 C308.089051,899.659976 306.629066,897.24 303.709051,897.24 C301.669041,897.24 300.069057,897.899993 298.909051,899.22 C297.749045,900.540007 297.169051,902.339989 297.169051,904.62 L297.169051,923.1 Z M352.453577,908.64 C352.413576,909.120002 352.303578,909.489999 352.123577,909.75 C351.943576,910.010001 351.613579,910.14 351.133577,910.14 L332.353577,910.14 C332.633578,912.820013 333.48357,914.799994 334.903577,916.08 C336.323584,917.360006 338.013567,918.04 339.973577,918.12 C341.813586,918.2 343.42357,918.020002 344.803577,917.58 C346.183584,917.139998 347.51357,916.520004 348.793577,915.72 C349.353579,915.359998 349.733576,915.259999 349.933577,915.42 C350.133578,915.580001 350.233577,915.999997 350.233577,916.68 L350.233577,921.18 C350.233577,921.620002 350.183577,921.919999 350.083577,922.08 C349.983576,922.240001 349.753578,922.459999 349.393577,922.74 C348.233571,923.540004 346.763586,924.139998 344.983577,924.54 C343.203568,924.940002 341.453585,925.14 339.733577,925.14 C334.933553,925.14 331.143591,923.600015 328.363577,920.52 C325.583563,917.439985 324.193577,913.060028 324.193577,907.38 C324.193577,905.259989 324.473574,903.140011 325.033577,901.02 C325.593579,898.899989 326.49357,896.990009 327.733577,895.29 C328.973583,893.589991 330.493568,892.210005 332.293577,891.15 C334.093586,890.089995 336.233564,889.56 338.713577,889.56 C341.233589,889.56 343.363568,890.019995 345.103577,890.94 C346.843585,891.860005 348.263571,893.099992 349.363577,894.66 C350.463582,896.220008 351.253574,898.02999 351.733577,900.09 C352.213579,902.15001 352.453577,904.339988 352.453577,906.66 L352.453577,908.64 Z M338.893577,896.52 C338.053572,896.52 337.27358,896.719998 336.553577,897.12 C335.833573,897.520002 335.203579,898.039997 334.663577,898.68 C334.123574,899.320003 333.653579,900.059996 333.253577,900.9 C332.853575,901.740004 332.593577,902.619995 332.473577,903.54 L344.653577,903.54 C344.653577,902.739996 344.523578,901.920004 344.263577,901.08 C344.003575,900.239996 343.643579,899.490003 343.183577,898.83 C342.723574,898.169997 342.13358,897.620002 341.413577,897.18 C340.693573,896.739998 339.853581,896.52 338.893577,896.52 L338.893577,896.52 Z M377.402628,924.54 C376.842625,924.54 376.442629,924.480001 376.202628,924.36 C375.962627,924.239999 375.842628,923.900003 375.842628,923.34 L375.842628,919.08 C375.842628,918.639998 375.942627,918.270002 376.142628,917.97 C376.342629,917.669999 376.582626,917.360002 376.862628,917.04 L385.622628,906.48 C388.862644,902.55998 391.202621,899.360012 392.642628,896.88 C394.082635,894.399988 394.802628,892.420007 394.802628,890.94 C394.802628,889.299992 394.372632,888.000005 393.512628,887.04 C392.652623,886.079995 391.422636,885.520001 389.822628,885.36 C388.30262,885.199999 386.762636,885.359998 385.202628,885.84 C383.64262,886.320002 381.902637,887.099995 379.982628,888.18 C379.422625,888.500002 379.032629,888.61 378.812628,888.51 C378.592627,888.41 378.442628,888.180002 378.362628,887.82 L377.282628,882.54 C377.202627,882.219998 377.212627,881.960001 377.312628,881.76 C377.412628,881.559999 377.702625,881.300002 378.182628,880.98 C378.942632,880.459997 379.802623,879.990002 380.762628,879.57 C381.722633,879.149998 382.712623,878.790002 383.732628,878.49 C384.752633,878.189999 385.762623,877.970001 386.762628,877.83 C387.762633,877.689999 388.662624,877.62 389.462628,877.62 C391.382637,877.62 393.192619,877.899997 394.892628,878.46 C396.592636,879.020003 398.062622,879.849994 399.302628,880.95 C400.542634,882.050005 401.522624,883.419992 402.242628,885.06 C402.962631,886.700008 403.322628,888.599989 403.322628,890.76 C403.322628,892.640009 402.922632,894.519991 402.122628,896.4 C401.322624,898.280009 400.342634,900.109991 399.182628,901.89 C398.022622,903.670009 396.772634,905.369992 395.432628,906.99 C394.092621,908.610008 392.882633,910.079993 391.802628,911.4 C391.122624,912.280004 390.312632,913.239995 389.372628,914.28 C388.432623,915.320005 387.582632,916.279996 386.822628,917.16 L402.662628,917.16 C403.262631,917.16 403.632627,917.259999 403.772628,917.46 C403.912628,917.660001 403.982628,918.039997 403.982628,918.6 L403.982628,923.1 C403.982628,923.700003 403.902629,924.089999 403.742628,924.27 C403.582627,924.450001 403.222631,924.54 402.662628,924.54 L377.402628,924.54 Z M437.967153,920.94 C436.487146,922.300007 434.707164,923.299997 432.627153,923.94 C430.547143,924.580003 428.367165,924.9 426.087153,924.9 C425.36715,924.9 424.557158,924.85 423.657153,924.75 C422.757149,924.65 421.857158,924.510001 420.957153,924.33 C420.057149,924.149999 419.197157,923.940001 418.377153,923.7 C417.557149,923.459999 416.867156,923.200001 416.307153,922.92 C415.987152,922.759999 415.777154,922.620001 415.677153,922.5 C415.577153,922.379999 415.527153,922.100002 415.527153,921.66 L415.527153,916.02 C415.527153,915.539998 415.617152,915.240001 415.797153,915.12 C415.977154,914.999999 416.267151,915.019999 416.667153,915.18 C417.267156,915.420001 417.967149,915.649999 418.767153,915.87 C419.567157,916.090001 420.407149,916.299999 421.287153,916.5 C422.167158,916.700001 423.067149,916.859999 423.987153,916.98 C424.907158,917.100001 425.767149,917.16 426.567153,917.16 C428.927165,917.16 430.857146,916.460007 432.357153,915.06 C433.857161,913.659993 434.607153,911.760012 434.607153,909.36 C434.607153,907.119989 433.997159,905.280007 432.777153,903.84 C431.557147,902.399993 429.487168,901.68 426.567153,901.68 C425.407148,901.68 424.11716,901.809999 422.697153,902.07 C421.277146,902.330001 419.967159,902.679998 418.767153,903.12 C418.407152,903.280001 418.047155,903.41 417.687153,903.51 C417.327152,903.61 417.007155,903.63 416.727153,903.57 C416.447152,903.51 416.227154,903.330001 416.067153,903.03 C415.907153,902.729998 415.827153,902.260003 415.827153,901.62 L416.127153,879.36 C416.127153,878.759997 416.247152,878.380001 416.487153,878.22 C416.727155,878.059999 417.18715,877.98 417.867153,877.98 L439.647153,877.98 C440.127156,877.98 440.437153,878.069999 440.577153,878.25 C440.717154,878.430001 440.787153,878.739998 440.787153,879.18 L440.787153,884.16 C440.787153,884.600002 440.727154,884.919999 440.607153,885.12 C440.487153,885.320001 440.167156,885.42 439.647153,885.42 L424.047153,885.42 L423.807153,895.2 C424.487157,895.039999 425.19715,894.93 425.937153,894.87 C426.677157,894.81 427.38715,894.78 428.067153,894.78 C430.107164,894.78 432.017144,895.089997 433.797153,895.71 C435.577162,896.330003 437.127147,897.229994 438.447153,898.41 C439.76716,899.590006 440.80715,901.049991 441.567153,902.79 C442.327157,904.530009 442.707153,906.519989 442.707153,908.76 C442.707153,913.880026 441.127169,917.939985 437.967153,920.94 L437.967153,920.94 Z M450.651679,904.5 C450.451678,904.5 450.27168,904.430001 450.111679,904.29 C449.951678,904.149999 449.871679,903.980001 449.871679,903.78 L449.871679,897.78 C449.871679,897.579999 449.951678,897.410001 450.111679,897.27 C450.27168,897.129999 450.451678,897.06 450.651679,897.06 L466.371679,897.06 C466.61168,897.06 466.801678,897.129999 466.941679,897.27 C467.08168,897.410001 467.151679,897.579999 467.151679,897.78 L467.151679,903.78 C467.151679,903.980001 467.08168,904.149999 466.941679,904.29 C466.801678,904.430001 466.61168,904.5 466.371679,904.5 L450.651679,904.5 Z M474.136204,924.54 C473.576202,924.54 473.176206,924.480001 472.936204,924.36 C472.696203,924.239999 472.576204,923.900003 472.576204,923.34 L472.576204,919.08 C472.576204,918.639998 472.676203,918.270002 472.876204,917.97 C473.076205,917.669999 473.316203,917.360002 473.596204,917.04 L482.356204,906.48 C485.596221,902.55998 487.936197,899.360012 489.376204,896.88 C490.816212,894.399988 491.536204,892.420007 491.536204,890.94 C491.536204,889.299992 491.106209,888.000005 490.246204,887.04 C489.3862,886.079995 488.156212,885.520001 486.556204,885.36 C485.036197,885.199999 483.496212,885.359998 481.936204,885.84 C480.376197,886.320002 478.636214,887.099995 476.716204,888.18 C476.156202,888.500002 475.766206,888.61 475.546204,888.51 C475.326203,888.41 475.176205,888.180002 475.096204,887.82 L474.016204,882.54 C473.936204,882.219998 473.946204,881.960001 474.046204,881.76 C474.146205,881.559999 474.436202,881.300002 474.916204,880.98 C475.676208,880.459997 476.5362,879.990002 477.496204,879.57 C478.456209,879.149998 479.446199,878.790002 480.466204,878.49 C481.48621,878.189999 482.496199,877.970001 483.496204,877.83 C484.496209,877.689999 485.3962,877.62 486.196204,877.62 C488.116214,877.62 489.926196,877.899997 491.626204,878.46 C493.326213,879.020003 494.796198,879.849994 496.036204,880.95 C497.276211,882.050005 498.256201,883.419992 498.976204,885.06 C499.696208,886.700008 500.056204,888.599989 500.056204,890.76 C500.056204,892.640009 499.656208,894.519991 498.856204,896.4 C498.0562,898.280009 497.07621,900.109991 495.916204,901.89 C494.756199,903.670009 493.506211,905.369992 492.166204,906.99 C490.826198,908.610008 489.61621,910.079993 488.536204,911.4 C487.856201,912.280004 487.046209,913.239995 486.106204,914.28 C485.1662,915.320005 484.316208,916.279996 483.556204,917.16 L499.396204,917.16 C499.996207,917.16 500.366204,917.259999 500.506204,917.46 C500.646205,917.660001 500.716204,918.039997 500.716204,918.6 L500.716204,923.1 C500.716204,923.700003 500.636205,924.089999 500.476204,924.27 C500.316204,924.450001 499.956207,924.54 499.396204,924.54 L474.136204,924.54 Z M525.04073,924.96 C520.120705,924.96 516.400743,923.100019 513.88073,919.38 C511.360717,915.659981 510.10073,910.100037 510.10073,902.7 C510.10073,899.339983 510.440727,896.130015 511.12073,893.07 C511.800733,890.009985 512.920722,887.330011 514.48073,885.03 C516.040738,882.729988 518.100717,880.900007 520.66073,879.54 C523.220743,878.179993 526.400711,877.5 530.20073,877.5 C530.760733,877.5 531.390726,877.53 532.09073,877.59 C532.790733,877.65 533.480727,877.72 534.16073,877.8 C534.840733,877.88 535.500727,877.979999 536.14073,878.1 C536.780733,878.220001 537.340728,878.359999 537.82073,878.52 C538.220732,878.680001 538.45073,878.859999 538.51073,879.06 C538.57073,879.260001 538.60073,879.519998 538.60073,879.84 L538.36073,885.54 C538.32073,885.980002 538.190731,886.22 537.97073,886.26 C537.750729,886.3 537.360733,886.240001 536.80073,886.08 C536.120727,885.879999 535.510733,885.720001 534.97073,885.6 C534.430727,885.479999 533.910732,885.38 533.41073,885.3 C532.910727,885.22 532.390733,885.17 531.85073,885.15 C531.310727,885.13 530.680734,885.12 529.96073,885.12 C526.600713,885.12 523.990739,886.189989 522.13073,888.33 C520.270721,890.470011 519.160732,893.319982 518.80073,896.88 C519.640734,895.879995 520.770723,895.080003 522.19073,894.48 C523.610737,893.879997 524.940724,893.58 526.18073,893.58 C528.10074,893.58 529.920721,893.929997 531.64073,894.63 C533.360739,895.330003 534.850724,896.339993 536.11073,897.66 C537.370736,898.980007 538.370726,900.579991 539.11073,902.46 C539.850734,904.340009 540.22073,906.439988 540.22073,908.76 C540.22073,911.040011 539.870733,913.16999 539.17073,915.15 C538.470726,917.13001 537.460737,918.839993 536.14073,920.28 C534.820723,921.720007 533.220739,922.859996 531.34073,923.7 C529.460721,924.540004 527.360742,924.96 525.04073,924.96 L525.04073,924.96 Z M525.70073,901.02 C523.420719,901.02 521.640736,901.699993 520.36073,903.06 C519.080724,904.420007 518.44073,906.279988 518.44073,908.64 C518.44073,909.920006 518.620728,911.099995 518.98073,912.18 C519.340732,913.260005 519.820727,914.189996 520.42073,914.97 C521.020733,915.750004 521.730726,916.369998 522.55073,916.83 C523.370734,917.290002 524.240725,917.52 525.16073,917.52 C527.20074,917.52 528.890723,916.780007 530.23073,915.3 C531.570737,913.819993 532.24073,911.740013 532.24073,909.06 C532.24073,906.499987 531.660736,904.520007 530.50073,903.12 C529.340724,901.719993 527.74074,901.02 525.70073,901.02 L525.70073,901.02 Z" id="June-25-26" fill="#FFFFFF"></path>
                <g id="rwr-rounded-logo" transform="translate(617.000000, 712.000000)">
                    <g id="rwr-logo-vector">
                        <rect id="Rectangle-18" fill="#222222" x="0" y="0" width="111.736471" height="112.159715"></rect>
                        <path d="M25.1520543,36.9428223 C25.2444045,37.0658554 25.2905789,37.2042655 25.2905789,37.3580568 C25.2905789,38.0654969 24.5517886,38.6037584 23.0741858,38.9728576 C21.442666,37.7117688 19.4109926,35.7740272 16.9791046,33.1595748 C14.2701661,30.2375397 12.2538842,28.2075247 10.9301984,27.069469 C10.8378482,27.8691838 10.6685421,29.9607144 10.4222749,33.3441235 C10.268358,35.8970594 9.9913116,37.9270743 9.59112751,39.4342293 C9.52956072,39.4342293 9.33716741,39.5111238 9.01394179,39.6649151 C8.69071618,39.8187064 8.42136554,39.8648431 8.20588179,39.8033266 C6.85141255,39.4957439 6.17418808,38.557631 6.17418808,36.9889595 C6.17418808,36.5275855 6.23575394,35.9124295 6.35888751,35.1434729 C6.48202108,34.2514832 6.5589784,33.6978428 6.5897618,33.4825349 C6.71289536,31.6985556 6.78985269,29.5762673 6.82063608,27.1156061 L6.82063608,22.0866551 C6.82063608,17.9035312 7.05150806,14.3817628 7.51325894,11.5212443 C7.82109286,9.61423191 9.62189428,8.73763453 12.9157172,8.89142585 C14.5780204,8.95294238 16.0248181,9.78340305 17.2561538,11.3828328 C18.3951393,12.8592294 18.9646235,14.4586352 18.9646235,16.181098 C18.9646235,17.6267364 18.4259222,19.0723531 17.3485035,20.5179915 C16.4250017,21.8098386 15.2860333,22.8248461 13.9315641,23.5630444 C13.377463,23.8706271 13.1004166,24.2089629 13.1004166,24.578062 C13.1004166,24.9779195 13.4236374,25.4546654 14.0700886,26.0083142 C14.5626229,26.4081716 15.0551498,26.808023 15.5476841,27.2078805 C15.5784675,27.2386387 17.2715286,28.7765289 20.6269184,31.821597 C22.7509724,33.7286094 24.259336,35.4356674 25.1520543,36.9428223 L25.1520543,36.9428223 Z M15.4091595,16.2272351 C15.5015097,15.6735864 15.5322926,15.1814615 15.5015092,14.7508458 C15.409159,14.1049223 15.1398084,13.5205241 14.6934492,12.9976336 C14.24709,12.4747431 13.5313869,12.2133018 12.5463184,12.2133018 C11.807517,12.2133018 11.345773,12.4439853 11.1610726,12.9053592 C11.0071557,13.6743158 10.9301984,14.5509132 10.9301984,15.5351777 C10.9301984,15.9350351 10.9763728,16.9654215 11.0687229,18.6263677 C11.1302897,19.8874565 11.1302897,20.9178429 11.0687229,21.7175578 C13.6237445,19.8105454 15.0705422,17.9804562 15.4091595,16.2272351 L15.4091595,16.2272351 Z M39.1545798,13.5512795 C38.0155943,14.0126535 36.3379246,14.5509151 34.1215203,15.1660803 C31.9051161,15.7812456 30.2274464,16.3195072 29.0884609,16.7808811 C28.8114104,17.580596 28.6113213,19.3645485 28.4881878,22.1327923 C28.980722,22.3173419 29.5502063,22.4096153 30.1966575,22.4096153 C30.6584084,22.4096153 31.3818072,22.3327208 32.3668758,22.1789295 C33.3519443,22.0251381 34.0753432,21.9482436 34.5370941,21.9482436 C35.399029,21.9482436 36.1378194,22.1327904 36.7534872,22.5018896 C37.1844547,23.1170549 37.3999352,23.5169063 37.3999352,23.7014559 C37.3999352,23.9167638 37.2921949,24.0859317 37.0767112,24.2089647 C37.0151444,24.239723 36.7996639,24.4550276 36.4302632,24.854885 C36.1839961,25.1317094 35.8761668,25.2547406 35.5067661,25.2239824 C34.8603148,25.3777737 33.675172,25.4700471 31.9513021,25.5008054 C30.5044826,25.5315636 29.3501227,25.7161104 28.4881878,26.0544513 C27.9033033,28.3305629 27.6108655,30.1298943 27.6108655,31.4524997 C27.6108655,32.3444893 27.7339972,33.0519188 27.9802643,33.5748093 C29.4270838,34.589832 31.9358926,35.0204412 35.5067661,34.8666499 C35.7530332,34.8666499 36.0146881,34.7513081 36.2917386,34.5206212 C36.5687892,34.2899342 36.7996611,34.1745924 36.9843615,34.1745924 C37.8462965,33.9900428 38.4157807,34.6359567 38.6928312,36.1123534 C38.7851814,36.6044856 38.7005283,37.0581632 38.4388695,37.4733997 C38.1772106,37.8886363 37.8001198,38.1116304 37.3075855,38.1423886 C33.582795,38.2654217 30.3505874,37.9732226 27.6108655,37.2657825 C26.7489305,37.0504747 25.9639658,36.5737287 25.2559478,35.8355304 C24.5479298,35.097332 24.1477517,34.2668714 24.0554015,33.3441235 C23.778351,30.6681545 23.778351,28.2690459 24.0554015,26.1467257 C23.1934665,25.5623187 22.8086799,24.9932993 22.9010301,24.4396506 C22.9318135,24.1628262 23.1703812,23.9090743 23.6167403,23.6783873 C24.0630995,23.4477003 24.3170587,23.2093274 24.3786255,22.9632613 C24.4401923,22.7171952 24.563324,21.2561995 24.7480243,18.5802306 C23.0241544,18.2418897 22.1776238,17.5959758 22.2084072,16.6424696 C22.2391906,15.75048 22.7778919,15.0430505 23.8245272,14.52016 C24.8095957,14.1203026 25.7946495,13.7204512 26.7797181,13.3205937 C27.949487,12.7361867 29.3962847,12.2133041 31.1201546,11.7519301 C32.5977574,11.3520727 34.0907296,10.9676001 35.5991158,10.598501 C35.7530327,10.5677427 35.9377303,10.5523638 36.1532141,10.5523638 C36.9843656,10.5523638 37.9540279,10.8753207 39.06223,11.5212443 C39.0930134,11.6442773 39.1699708,11.8749608 39.2931043,12.2133018 C39.4162379,12.5516427 39.4778038,12.7977051 39.4778038,12.9514964 C39.4778038,13.1975625 39.3700635,13.3974882 39.1545798,13.5512795 L39.1545798,13.5512795 Z M57.3128423,34.4052783 C57.4975427,34.8974105 57.5898915,35.3280197 57.5898915,35.6971189 C57.5898915,36.3122842 57.3282366,36.8505457 56.8049189,37.3119197 C56.2816012,37.7732936 55.9275975,37.9885982 55.7428972,37.95784 C54.234511,37.6810156 53.2802401,36.4660824 52.880056,34.3130039 C52.4490885,31.9753759 51.9411702,30.0222554 51.3562858,28.4535839 C50.3096504,28.5458587 49.2630308,28.6381321 48.2163955,28.7304069 C47.0158432,28.8841982 46.0769638,29.2532919 45.3997292,29.8376989 C45.0611119,30.7912051 44.6147594,32.4828842 44.0606583,34.9127871 C43.5373407,37.1581403 43.0294223,38.8651984 42.536888,40.0340124 C42.2906209,40.5876612 41.7673111,40.7414502 40.9669429,40.4953841 C39.951091,40.1570432 39.4123897,39.6956761 39.3508229,39.1112691 C39.2584727,37.9424551 39.597085,36.3738071 40.3666698,34.4052783 C41.2901715,32.159925 41.7980899,30.5605192 41.89044,29.6070131 C41.9212234,29.3301887 41.7211344,29.0226107 41.2901669,28.6842698 C40.8591994,28.3459289 40.6437189,28.0844875 40.6437189,27.8999379 C40.6437189,27.7461466 40.7129805,27.5846682 40.8515058,27.4154977 C40.990031,27.2463273 41.3132518,27.1079171 41.8211778,27.0002632 C42.3291037,26.8926093 42.6138458,26.7311308 42.6754126,26.515823 C43.2295137,24.9779098 44.1068272,22.1174341 45.3073795,17.9343102 C46.3232314,14.3048351 47.2313278,11.521254 48.031696,9.58348333 C48.2163964,9.15286764 48.601183,8.93756302 49.1860675,8.93756302 C49.617035,8.93756302 50.0018216,9.07597313 50.3404389,9.35279751 C51.2023739,10.0909958 51.7564666,11.1982767 52.0027337,12.6746734 C52.1874341,13.9357622 52.3567402,15.1968321 52.5106572,16.457921 C54.0498268,23.7168713 55.6505391,29.6992639 57.3128423,34.4052783 L57.3128423,34.4052783 Z M50.5713132,25.5930797 C50.478963,24.4550239 50.278874,23.1785751 49.97104,21.763695 C49.6632061,20.5333644 49.3707683,19.3030523 49.0937178,18.0727217 C48.170216,20.6256577 47.3698598,23.1785553 46.6926252,25.7314912 C47.1851595,25.6392164 48.4780425,25.5930797 50.5713132,25.5930797 L50.5713132,25.5930797 Z M72.839138,31.267951 C72.7775712,31.2987093 70.9767698,32.5751581 67.4366797,35.0973357 C65.3741925,36.5737324 63.5426081,37.6656344 61.9418717,38.3730745 C61.7571714,38.4653493 61.5724738,38.511486 61.3877735,38.511486 C60.956806,38.511486 60.5566279,38.2346657 60.1872272,37.681017 C59.6331261,36.9428187 59.3406883,36.5583461 59.3099049,36.5275879 C59.2483381,33.8208606 59.4176442,30.0530298 59.8178283,25.2239824 C60.2795792,20.0873523 60.5104512,16.3810371 60.5104512,14.1049255 C60.5104512,12.5362541 60.4488853,11.0598795 60.3257517,9.67575766 C60.7259358,9.27590023 61.2338542,9.07597451 61.849522,9.07597451 C63.0192909,9.07597451 63.6965154,9.50658375 63.8812157,10.3678151 C63.9735659,12.8899928 63.8658257,16.6655131 63.5579917,21.6944892 C63.2501578,26.7234654 63.1270261,30.4989856 63.1885929,33.0211633 C64.0505279,32.6520641 65.1741048,32.0061503 66.5593574,31.0834024 C68.0677437,30.0376214 69.1605377,29.3455708 69.8377723,29.0072299 C69.9916893,29.0072299 70.2610399,28.9764721 70.6458323,28.9149556 C71.0306247,28.8534391 71.3153668,28.8226813 71.5000672,28.8226813 C72.115735,28.8226813 72.5620875,29.0687437 72.839138,29.5608759 C73.2085387,30.2375577 73.2085387,30.8065771 72.839138,31.267951 L72.839138,31.267951 Z" id="Real" fill="#FFFFFF" transform="translate(39.645188, 24.741582) rotate(-9.000000) translate(-39.645188, -24.741582) "></path>
                        <path d="M26.5678961,42.8933795 C27.2759142,43.2317204 27.6299179,43.7238452 27.6299179,44.3697687 C27.6299179,44.8003844 27.4452203,45.3847827 27.0758196,46.122981 C26.6140687,47.1072455 26.3678053,47.6608859 26.3370219,47.783919 C25.5982205,50.0600305 24.8979088,53.5202833 24.2360659,58.1647812 C23.5742229,62.809279 22.9046942,66.2233951 22.2274596,68.4072319 C22.0427592,69.0223971 21.5194494,69.3299752 20.6575144,69.3299752 C20.2573303,69.3299752 19.9033266,69.2530807 19.5954927,69.0992893 C18.4565072,68.5148823 17.6407596,67.3768436 17.1482253,65.6851391 C17.1174419,65.5313478 16.8250041,63.9934577 16.270903,61.0714226 C15.9938525,59.5335094 15.7321976,57.8879669 15.4859304,56.1347459 C15.054963,56.9959773 14.4854787,59.1336446 13.7774607,62.5478119 C13.1617929,65.5006052 12.438394,67.3768312 11.6072424,68.176546 C11.3609753,68.4226121 10.9300143,68.4533699 10.3143464,68.2688204 C9.39084469,68.1457873 8.77518609,67.5921469 8.46735217,66.6078824 C8.28265181,65.746651 8.09795423,64.8854325 7.91325388,64.0242012 C7.35915282,61.8096062 6.92049607,58.3647323 6.59727045,53.6894761 C6.27404484,49.01422 5.83538808,45.6001039 5.28128703,43.4470254 C5.18893685,43.0779263 5.23511125,42.7242115 5.4198116,42.3858706 C5.60451195,42.0475297 5.86616686,41.8629829 6.20478417,41.8322247 C6.4510513,41.7707081 6.69731475,41.7399503 6.94358188,41.7399503 C7.80551686,41.7399503 8.46734986,42.1244229 8.92910074,42.8933795 C9.42163501,45.4770736 10.0065107,50.5059744 10.6837453,57.9802325 C10.9300124,57.457342 11.2147545,56.4807818 11.5379802,55.0505225 C11.8612058,53.6202632 12.1767308,52.5821874 12.4845647,51.9362639 C12.7616153,50.7674498 13.0232702,49.5986533 13.2695373,48.4298393 C13.638938,47.0149592 14.4085113,46.3075297 15.5782802,46.3075297 C15.8861141,46.3075297 16.2247263,46.3536664 16.594127,46.4459412 C16.6249104,46.6304908 16.7634336,46.7381431 17.0097007,46.7689013 C17.2559679,46.7996596 17.3944911,46.8457963 17.4252744,46.9073128 C18.1025091,48.4144678 18.6104274,50.4291038 18.9490447,52.9512815 C19.4723624,56.5192401 19.7955832,58.5800129 19.9187167,59.1336616 C20.411251,56.3961761 20.9191693,53.6741106 21.442487,50.9673834 C22.0889382,47.7992822 22.9200774,45.2156268 23.9359293,43.2163396 C24.151413,42.8164822 24.5977655,42.6165565 25.2750001,42.6165565 C25.7675344,42.6165565 26.1984954,42.7088299 26.5678961,42.8933795 L26.5678961,42.8933795 Z M45.8343553,56.6883919 C44.0181351,60.779241 41.4477605,63.2091074 38.1231541,63.978064 C37.72297,64.0703388 37.3227919,64.1164755 36.9226079,64.1164755 C35.1679545,64.1164755 33.397936,63.1629836 31.6124993,61.2559712 C30.411947,59.9641242 29.8116799,58.2878239 29.8116799,56.2270202 C29.8116799,53.9509087 30.4889043,51.5056634 31.8433736,48.8912109 C32.428258,47.7839134 33.1362654,46.8304216 33.967417,46.0307067 C34.9217021,45.0772005 35.8297986,44.6004546 36.6917336,44.6004546 C37.1842678,44.6004546 37.6460118,44.7850014 38.0769793,45.1541006 C38.5079468,45.5231997 39.6623066,46.0153246 41.5400936,46.6304898 C43.0176964,47.1226221 44.064316,47.9530827 44.6799838,49.1218968 C45.7574026,51.1827005 46.2961038,52.9512741 46.2961038,54.4276708 C46.2961038,55.2581439 46.1421892,56.0117101 45.8343553,56.6883919 L45.8343553,56.6883919 Z M66.7063979,68.3972618 C66.3399187,68.63562 65.8201165,68.8388706 65.1469893,69.007015 C63.5154695,67.7459262 61.4837961,65.8081846 59.0519081,63.1937322 C56.3429696,60.2716971 54.3266877,58.2416821 53.0030018,57.1036264 C52.9106517,57.9033412 52.7413455,59.9948718 52.4950784,63.3782808 C52.3411614,65.9312168 52.0641151,67.9612317 51.663931,69.4683867 C51.6023642,69.4683867 51.4099709,69.5452812 51.0867453,69.6990725 C50.7635196,69.8528638 50.494169,69.8990005 50.2786853,69.837484 C48.924216,69.5299013 48.2469916,68.5917884 48.2469916,67.0231169 C48.2469916,66.5617429 48.3085574,65.9465869 48.431691,65.1776303 C48.5548246,64.2856406 48.6317819,63.7320002 48.6625653,63.5166923 C48.7856988,61.732713 48.8626562,59.6104246 48.8934396,57.1497635 L48.8934396,52.1208125 C48.8934396,47.9376886 49.1243115,44.4159202 49.5860624,41.5554017 C49.8938963,39.6483893 51.6946977,38.7717919 54.9885207,38.9255832 C56.6508239,38.9870998 58.0976216,39.8175604 59.3289573,41.4169902 C60.4679428,42.8933868 61.037427,44.4927926 61.037427,46.2152554 C61.037427,47.6608938 60.4987257,49.1065105 59.421307,50.5521489 C58.4978052,51.843996 57.3588368,52.8590035 56.0043675,53.5972018 C55.4502665,53.9047844 55.1732201,54.2431203 55.1732201,54.6122194 C55.1732201,55.0120769 55.4964409,55.4888228 56.1428921,56.0424716 C56.6354264,56.442329 57.1279533,56.8421804 57.6204875,57.2420379 C57.6512709,57.2727961 59.3443321,58.8106863 62.6997218,61.8557544 C63.6391672,62.6992047 64.4581716,63.50354 65.1567389,64.2687648 C65.1990437,61.8517088 65.3689488,58.8481826 65.6664564,55.2581398 C66.1282073,50.1215097 66.3590793,46.4151945 66.3590793,44.1390829 C66.3590793,42.5704115 66.2975134,41.0940369 66.1743798,39.7099151 C66.5745639,39.3100576 67.0824823,39.1101319 67.6981501,39.1101319 C68.867919,39.1101319 69.5451435,39.5407411 69.7298438,40.4019725 C69.822194,42.9241502 69.7144537,46.6996705 69.4066198,51.7286466 C69.0987859,56.7576228 68.9756542,60.533143 69.037221,63.0553207 C69.8991559,62.6862215 71.0227329,62.0403077 72.4079855,61.1175597 C73.9163717,60.0717788 75.0091658,59.3797282 75.6864004,59.0413873 C75.8403173,59.0413873 76.109668,59.0106295 76.4944604,58.949113 C76.8792528,58.8875964 77.1639949,58.8568386 77.3486952,58.8568386 C77.9643631,58.8568386 78.4107156,59.1029011 78.6877661,59.5950333 C79.0571668,60.2717151 79.0571668,60.8407344 78.6877661,61.3021084 C78.6261993,61.3328667 76.8253979,62.6093155 73.2853078,65.1314931 C71.2228206,66.6078898 69.3912362,67.6997918 67.7904998,68.4072319 C67.6057995,68.4995067 67.4211019,68.5456434 67.2364015,68.5456434 C67.0542327,68.5456434 66.8775652,68.496183 66.7063979,68.3972618 Z M42.1403667,53.8278876 C41.924883,51.5825344 41.3246158,50.2445699 40.3395473,49.8139543 C40.1856303,49.7524377 40.0471071,49.7216799 39.9239736,49.7216799 C39.5545729,49.7216799 39.0928289,50.0292579 38.5387278,50.6444232 C37.92306,51.3518633 37.4459246,51.7670936 37.1073073,51.8901267 C36.8918235,51.9824015 36.5839942,51.8901281 36.1838101,51.6133037 C35.783626,51.3364793 35.5219711,51.1980692 35.3988376,51.1980692 C35.3064874,51.1980692 35.2295301,51.228827 35.1679633,51.2903435 C34.0905446,52.2130915 33.5518433,53.6433293 33.5518433,55.5810999 C33.5518433,56.9037053 33.8596726,58.0263651 34.4753404,58.949113 C35.3372754,60.2102018 36.0606743,60.8407368 36.6455587,60.8407368 C38.000028,60.8407368 39.3083025,59.9948972 40.5704216,58.3031927 C41.7709738,56.7037629 42.2942837,55.2120095 42.1403667,53.8278876 Z M57.481963,46.2613925 C57.5743131,45.7077438 57.6050961,45.2156189 57.5743127,44.7850032 C57.4819625,44.1390797 57.2126119,43.5546814 56.7662527,43.031791 C56.3198935,42.5089005 55.6041904,42.2474591 54.6191218,42.2474591 C53.8803204,42.2474591 53.4185765,42.4781427 53.2338761,42.9395166 C53.0799592,43.7084732 53.0030018,44.5850706 53.0030018,45.569335 C53.0030018,45.9691925 53.0491762,46.9995789 53.1415264,48.6605251 C53.2030932,49.9216139 53.2030932,50.9520003 53.1415264,51.7517152 C55.6965479,49.8447028 57.1433457,48.0146136 57.481963,46.2613925 L57.481963,46.2613925 Z M93.8908378,56.4577061 C93.5830039,57.1651461 93.290566,57.8725756 93.0135155,58.5800157 C92.6441148,59.4104888 92.2439367,60.0717815 91.8129692,60.5639138 C90.8586841,61.7634861 89.9044132,62.9476615 88.9501281,64.1164755 C87.8111426,65.5313556 86.7799144,66.5156053 85.8564127,67.0692541 C85.5485787,67.4383532 85.2099665,67.8228258 84.8405658,68.2226832 C84.4711651,68.6225406 84.1017699,68.8224663 83.7323692,68.8224663 C83.5476689,68.8224663 83.3321884,68.7763296 83.0859212,68.6840548 C82.8396541,68.5917801 82.5703035,68.4841277 82.2778612,68.3610947 C81.985419,68.2380616 81.7776342,68.0381359 81.6545007,67.7613115 C81.5621505,66.4694645 81.5159761,65.0853633 81.5159761,63.6089667 C81.5159761,62.1018117 81.577542,59.8564921 81.7006755,56.8729405 C81.8238091,53.8893889 81.8853749,51.6440693 81.8853749,50.1369144 C81.8853749,48.1376272 81.8084176,46.307538 81.6545007,44.6465917 C81.6237173,44.6158335 81.285105,44.2621187 80.6386538,43.5854369 C80.2384697,43.1855795 80.0383807,42.8164859 80.0383807,42.478145 C80.0383807,42.3243537 80.0691636,42.1705646 80.1307304,42.0167733 C80.2846473,41.6476742 80.6232596,41.4323695 81.1465772,41.370853 C81.5467613,41.3093365 81.9469394,41.2631998 82.3471235,41.2324415 C84.9329284,41.7860903 87.6418263,43.231707 90.4738984,45.569335 C91.2126998,46.1845003 91.8129669,46.8304142 92.2747178,47.507096 C93.7523206,49.6909327 94.4911109,51.7363266 94.4911109,53.643339 C94.4911109,54.6276034 94.2910219,55.5657164 93.8908378,56.4577061 L93.8908378,56.4577061 Z M90.5662481,51.5210294 C90.2891976,49.5832587 88.6423108,47.8762007 85.6255384,46.399804 C85.4100546,51.5364341 85.3484888,56.9805652 85.4408389,62.7323605 C88.9193622,59.2566767 90.6585978,55.9502129 90.6585978,52.81287 C90.6585978,52.3822543 90.6278149,51.9516451 90.5662481,51.5210294 L90.5662481,51.5210294 Z" id="WORLd" fill="#FFFFFF" transform="translate(49.863111, 54.386108) rotate(-14.000000) translate(-49.863111, -54.386108) "></path>
                        <path d="M44.722269,94.9008941 C44.8146192,95.0239272 44.8607936,95.1623373 44.8607936,95.3161286 C44.8607936,96.0235687 44.1220033,96.5618302 42.6444005,96.9309294 C41.0128807,95.6698406 38.9812073,93.732099 36.5493193,91.1176466 C33.8403808,88.1956115 31.8240989,86.1655965 30.5004131,85.0275408 C30.4080629,85.8272556 30.2387568,87.9187862 29.9924896,91.3021952 C29.8385727,93.8551312 29.5615263,95.8851461 29.1613422,97.3923011 C29.0997754,97.3923011 28.9073821,97.4691956 28.5841565,97.6229869 C28.2609309,97.7767782 27.9915802,97.8229149 27.7760965,97.7613984 C26.4216272,97.4538157 25.7444028,96.5157028 25.7444028,94.9470313 C25.7444028,94.4856573 25.8059686,93.8705013 25.9291022,93.1015447 C26.0522358,92.209555 26.1291931,91.6559146 26.1599765,91.4406067 C26.2831101,89.6566274 26.3600674,87.534339 26.3908508,85.0736779 L26.3908508,80.0447269 C26.3908508,75.861603 26.6217228,72.3398346 27.0834736,69.4793161 C27.3913076,67.5723037 29.192109,66.6957063 32.4859319,66.8494976 C34.1482351,66.9110142 35.5950328,67.7414748 36.8263685,69.3409046 C37.965354,70.8173012 38.5348382,72.416707 38.5348382,74.1391698 C38.5348382,75.5848082 37.9961369,77.0304249 36.9187182,78.4760633 C35.9952164,79.7679104 34.856248,80.7829179 33.5017788,81.5211162 C32.9476777,81.8286988 32.6706313,82.1670347 32.6706313,82.5361338 C32.6706313,82.9359913 32.9938521,83.4127372 33.6403033,83.966386 C34.1328376,84.3662434 34.6253645,84.7660948 35.1178988,85.1659523 C35.1486822,85.1967105 36.8417433,86.7346007 40.1971331,89.7796688 C42.3211871,91.6866812 43.8295507,93.3937392 44.722269,94.9008941 L44.722269,94.9008941 Z M34.9793742,74.1853069 C35.0717244,73.6316582 35.1025073,73.1395333 35.0717239,72.7089176 C34.9793737,72.0629941 34.7100231,71.4785958 34.2636639,70.9557054 C33.8173047,70.4328149 33.1016016,70.1713735 32.1165331,70.1713735 C31.3777317,70.1713735 30.9159877,70.4020571 30.7312873,70.863431 C30.5773704,71.6323876 30.5004131,72.508985 30.5004131,73.4932494 C30.5004131,73.8931069 30.5465875,74.9234933 30.6389376,76.5844395 C30.7005044,77.8455283 30.7005044,78.8759147 30.6389376,79.6756296 C33.1939592,77.7686172 34.6407569,75.938528 34.9793742,74.1853069 L34.9793742,74.1853069 Z M58.7247945,71.5093513 C57.585809,71.9707253 55.9081393,72.5089868 53.691735,73.1241521 C51.4753308,73.7393174 49.7976611,74.2775789 48.6586756,74.7389529 C48.3816251,75.5386678 48.181536,77.3226203 48.0584025,80.0908641 C48.5509367,80.2754137 49.120421,80.3676871 49.7668722,80.3676871 C50.2286231,80.3676871 50.9520219,80.2907926 51.9370905,80.1370012 C52.922159,79.9832099 53.6455579,79.9063154 54.1073088,79.9063154 C54.9692437,79.9063154 55.7080341,80.0908622 56.3237019,80.4599614 C56.7546694,81.0751267 56.9701499,81.4749781 56.9701499,81.6595277 C56.9701499,81.8748355 56.8624096,82.0440035 56.6469259,82.1670365 C56.5853591,82.1977948 56.3698786,82.4130994 56.0004779,82.8129568 C55.7542108,83.0897812 55.4463815,83.2128124 55.0769808,83.1820542 C54.4305295,83.3358455 53.2453867,83.4281189 51.5215168,83.4588771 C50.0746973,83.4896354 48.9203374,83.6741822 48.0584025,84.0125231 C47.473518,86.2886347 47.1810802,88.0879661 47.1810802,89.4105715 C47.1810802,90.3025611 47.3042119,91.0099906 47.550479,91.5328811 C48.9972985,92.5479038 51.5061073,92.978513 55.0769808,92.8247217 C55.3232479,92.8247217 55.5849028,92.7093799 55.8619533,92.478693 C56.1390039,92.248006 56.3698758,92.1326642 56.5545762,92.1326642 C57.4165112,91.9481146 57.9859954,92.5940285 58.2630459,94.0704252 C58.3553961,94.5625574 58.270743,95.016235 58.0090842,95.4314715 C57.7474253,95.8467081 57.3703345,96.0697022 56.8778002,96.1004604 C53.1530098,96.2234935 49.9208021,95.9312944 47.1810802,95.2238543 C46.3191452,95.0085464 45.5341805,94.5318005 44.8261625,93.7936022 C44.1181445,93.0554038 43.7179664,92.2249432 43.6256162,91.3021952 C43.3485657,88.6262263 43.3485657,86.2271177 43.6256162,84.1047975 C42.7636812,83.5203904 42.3788946,82.9513711 42.4712448,82.3977223 C42.5020282,82.120898 42.7405959,81.8671461 43.1869551,81.6364591 C43.6333142,81.4057721 43.8872734,81.1673992 43.9488402,80.9213331 C44.010407,80.6752669 44.1335387,79.2142713 44.318239,76.5383024 C42.5943691,76.1999614 41.7478385,75.5540476 41.7786219,74.6005414 C41.8094053,73.7085518 42.3481066,73.0011223 43.3947419,72.4782318 C44.3798105,72.0783744 45.3648642,71.6785229 46.3499328,71.2786655 C47.5197017,70.6942585 48.9664994,70.1713759 50.6903693,69.7100019 C52.1679721,69.3101445 53.6609443,68.9256719 55.1693305,68.5565728 C55.3232474,68.5258145 55.507945,68.5104356 55.7234288,68.5104356 C56.5545803,68.5104356 57.5242426,68.8333925 58.6324447,69.4793161 C58.6632281,69.6023491 58.7401855,69.8330326 58.863319,70.1713735 C58.9864526,70.5097144 59.0480185,70.7557769 59.0480185,70.9095682 C59.0480185,71.1556343 58.9402782,71.35556 58.7247945,71.5093513 L58.7247945,71.5093513 Z M76.883057,92.36335 C77.0677574,92.8554823 77.1601062,93.2860915 77.1601062,93.6551907 C77.1601062,94.2703559 76.8984513,94.8086175 76.3751336,95.2699915 C75.8518159,95.7313654 75.4978122,95.94667 75.3131119,95.9159118 C73.8047257,95.6390874 72.8504548,94.4241542 72.4502707,92.2710757 C72.0193032,89.9334476 71.5113849,87.9803272 70.9265005,86.4116557 C69.8798651,86.5039305 68.8332455,86.5962039 67.7866102,86.6884787 C66.5860579,86.84227 65.6471785,87.2113637 64.9699439,87.7957707 C64.6313266,88.7492769 64.1849741,90.440956 63.630873,92.8708589 C63.1075554,95.1162121 62.599637,96.8232702 62.1071027,97.9920842 C61.8608356,98.545733 61.3375258,98.699522 60.5371576,98.4534559 C59.5213057,98.115115 58.9826044,97.6537479 58.9210376,97.0693409 C58.8286874,95.9005269 59.1672997,94.3318789 59.9368845,92.36335 C60.8603862,90.1179968 61.3683046,88.518591 61.4606547,87.5650849 C61.4914381,87.2882605 61.2913491,86.9806825 60.8603816,86.6423415 C60.4294141,86.3040006 60.2139336,86.0425593 60.2139336,85.8580097 C60.2139336,85.7042184 60.2831952,85.54274 60.4217205,85.3735695 C60.5602457,85.2043991 60.8834665,85.0659889 61.3913925,84.958335 C61.8993184,84.8506811 62.1840605,84.6892026 62.2456273,84.4738948 C62.7997284,82.9359816 63.6770419,80.0755059 64.8775942,75.892382 C65.8934461,72.2629069 66.8015425,69.4793258 67.6019107,67.5415551 C67.7866111,67.1109394 68.1713977,66.8956348 68.7562822,66.8956348 C69.1872497,66.8956348 69.5720363,67.0340449 69.9106536,67.3108693 C70.7725886,68.0490676 71.3266813,69.1563485 71.5729485,70.6327452 C71.7576488,71.893834 71.9269549,73.1549039 72.0808719,74.4159927 C73.6200415,81.674943 75.2207538,87.6573357 76.883057,92.36335 L76.883057,92.36335 Z M91.7107137,66.9037677 C91.7147245,66.8560328 91.7167299,66.8071847 91.7167299,66.7572233 C91.7167299,66.2343328 91.6089896,65.895997 91.3935059,65.7422057 C90.6854878,65.2193152 89.9005231,64.9578739 89.0385881,64.9578739 C87.0376677,64.9578739 85.1137345,66.0651548 83.266731,68.2797498 C80.0960416,72.0937745 78.5107207,76.7228238 78.5107207,82.1670365 C78.5107207,83.1820592 78.5722866,84.2278245 78.6954202,85.3043638 C79.0648209,88.7800476 79.3264758,90.7639259 79.4803927,91.2560581 C79.6958765,91.9327399 80.026793,92.6478588 80.4731522,93.4014363 C80.9195113,94.1550137 81.3581681,94.8855115 81.7891356,95.5929516 C83.5130055,98.3919536 85.1137179,100.222043 86.5913207,101.083274 C87.4224723,101.421615 88.0381309,101.621541 88.438315,101.683057 C88.8077157,101.775332 89.1540237,101.621543 89.4772493,101.221686 C89.8004749,100.821828 89.9620853,100.37584 89.9620853,99.883708 C89.9620853,99.3915758 89.7158218,99.0071032 89.2232876,98.7302789 C88.7615367,98.5457293 88.2997927,98.3458036 87.8380419,98.1304957 C86.7298398,97.4845722 85.7909604,96.4080491 85.0213756,94.9008941 C84.7135417,94.2857289 84.2056233,92.9939011 83.4976053,91.0253722 C82.6356703,88.6262277 82.2047093,86.07333 82.2047093,83.3666028 C82.2047093,77.6148075 83.9285534,72.9242426 87.3762933,69.2947674 C87.4329365,69.2330252 87.5050842,69.1725742 87.5927365,69.1134142 C87.6546025,69.2487398 87.7248272,69.4014652 87.8034107,69.5715904 C88.7576959,70.3713053 89.9890131,70.7711567 91.4973993,70.7711567 C92.1438505,70.7711567 93.3136019,70.6481255 95.0066884,70.4020594 C96.4842912,70.1867515 97.6386511,70.109857 98.4698027,70.1713735 C98.5005861,72.3859686 98.3774544,75.6001589 98.1004039,79.8140411 C97.8233533,84.2124728 97.6848301,87.4266632 97.6848301,89.4567086 C97.6848301,90.7177975 97.7156131,91.9173518 97.7771799,93.0554075 C97.8387466,93.9473972 98.1619674,94.7547895 98.7468519,95.4776087 C99.3317363,96.2004279 100.070527,96.577211 100.963245,96.6079692 C101.424996,96.6387275 101.732825,96.408044 101.886742,95.9159118 C101.979092,95.6083291 102.009875,95.162341 101.979092,94.577934 C101.917525,92.7016799 101.886742,90.7946961 101.886742,88.8569255 C101.886742,83.7510537 102.194571,77.3688096 102.810239,69.7100019 C107.766365,68.910287 111.244837,68.2643732 113.245757,67.7722409 C114.015342,67.5876914 114.538652,66.9417775 114.815702,65.83448 C114.815702,65.2808313 114.400133,65.004011 113.568981,65.004011 C113.661331,64.5426371 113.430459,64.3119536 112.876358,64.3119536 C112.137557,64.2196788 111.214069,64.3119522 110.105867,64.5887765 C108.59748,64.988634 107.658601,65.2039386 107.2892,65.2346969 C106.027081,65.5730378 104.703415,65.7422057 103.318163,65.7422057 C101.93291,65.7422057 100.701593,65.5730378 99.6241741,65.2346969 C98.3004883,65.9421369 96.2995978,66.4342618 93.6214427,66.7110861 C92.931709,66.773738 92.2947995,66.8379652 91.7107137,66.9037677 Z M70.1415279,83.5511515 C70.0491777,82.4130957 69.8490887,81.1366469 69.5412547,79.7217668 C69.2334208,78.4914362 68.940983,77.2611241 68.6639325,76.0307935 C67.7404307,78.5837294 66.9400745,81.1366271 66.2628399,83.689563 C66.7553742,83.5972882 68.0482572,83.5511515 70.1415279,83.5511515 Z" id="react" fill="#FFFFFF" transform="translate(70.280052, 82.993180) rotate(-20.000000) translate(-70.280052, -82.993180) "></path>
                        <g id="react-logo-official" transform="translate(85.785539, 5.929411)">
                            <ellipse id="Oval" fill="#00D8FF" cx="10.5895414" cy="9.47496571" rx="1.95947777" ry="1.95676228"></ellipse>
                            <path d="M10.5895414,5.49645888 C13.220406,5.49645888 15.6644119,5.8734419 17.5071811,6.50696061 C19.7274564,7.27024884 21.0925719,8.42729224 21.0925719,9.47496571 C21.0925719,10.5667538 19.6457838,11.7958784 17.2615384,12.5847539 C15.458922,13.1811789 13.0869411,13.4924775 10.5895414,13.4924775 C8.0290613,13.4924775 5.60442873,13.2002523 3.78193122,12.578162 C1.47564773,11.7909637 0.0865109095,10.5458861 0.0865109095,9.47496571 C0.0865109095,8.43579532 1.38991301,7.28772307 3.57898015,6.52556598 C5.42862373,5.88163294 7.93297592,5.49645888 10.5895414,5.49645888 L10.5895414,5.49645888 Z" id="Shape" stroke="#00D8FF" stroke-width="1.1"></path>
                            <path d="M7.12136692,7.49717975 C8.43566651,5.22131782 9.98365668,3.29540848 11.4538021,2.01776171 C13.2251322,0.47839161 14.9108056,-0.124508195 15.8196327,0.398860479 C16.7667377,0.944266959 17.1102234,2.80991363 16.6034317,5.26652458 C16.2202619,7.12386319 15.3053416,9.33131041 14.0577159,11.4917566 C12.7785695,13.7067708 11.3138143,15.6582284 9.86366713,16.9240567 C8.02863165,18.5259127 6.25460648,19.1055656 5.32558583,18.5705734 C4.42414091,18.0514173 4.07936625,16.3503716 4.51182859,14.0759138 C4.87722645,12.154139 5.79421689,9.79531352 7.12136692,7.49717975 L7.12136692,7.49717975 Z" id="Shape" stroke="#00D8FF" stroke-width="1.1"></path>
                            <path d="M7.12468694,11.4975294 C5.80659862,9.22385172 4.90882526,6.92275357 4.53460004,5.01275826 C4.08370181,2.71150409 4.40250217,0.951989943 5.31046996,0.427100076 C6.25663755,-0.119905608 8.04675507,0.514627226 9.92491179,2.17998338 C11.3449444,3.43906378 12.8030986,5.33302806 14.0543568,7.49140702 C15.3372138,9.70427592 16.2987316,11.9461255 16.6727225,13.8329129 C17.1460016,16.220524 16.7629099,18.0448254 15.8347877,18.5813778 C14.934202,19.1020161 13.2862206,18.5507979 11.5289518,17.0407205 C10.0441983,15.764829 8.45570382,13.7934398 7.12468694,11.4975294 L7.12468694,11.4975294 Z" id="Shape" stroke="#00D8FF" stroke-width="1.1"></path>
                        </g>
                    </g>
                </g>
                <circle id="Oval-2" fill="#000000" cx="128" cy="190" r="65"></circle>
                <circle id="Oval-2-Copy" stroke="#979797" fill="#000000" cx="639" cy="190" r="65"></circle>
                <rect id="Rectangle-3" fill="#999999" x="595" y="0" width="88" height="214" rx="100"></rect>
                <rect id="Rectangle-3" fill="#999999" x="85" y="0" width="88" height="214" rx="100"></rect>
            </g>
        </g>
    </g>
</svg>