<?xml version="1.0" encoding="UTF-8" standalone="no"?>
<svg width="300px" height="300px" viewBox="0 0 300 300" version="1.1" xmlns="http://www.w3.org/2000/svg" xmlns:xlink="http://www.w3.org/1999/xlink" style="background: #222222;">
    <!-- Generator: Sketch 3.7.2 (28276) - http://www.bohemiancoding.com/sketch -->
    <title>RWR-meetup-logo</title>
    <desc>Created with Sketch.</desc>
    <defs></defs>
    <g id="Page-1" stroke="none" stroke-width="1" fill="none" fill-rule="evenodd">
        <g id="RWR-meetup-logo">
            <text id="Real" transform="translate(111.821919, 75.430605) rotate(-9.000000) translate(-111.821919, -75.430605) " font-family="TrashHand" font-size="120" font-weight="normal" letter-spacing="1.35000002" fill="#FFFFFF">
                <tspan x="22.8219186" y="102.930605">Real</tspan>
            </text>
            <text id="WORLd" transform="translate(132.841004, 156.950290) rotate(-14.000000) translate(-132.841004, -156.950290) " font-family="TrashHand" font-size="120" font-weight="normal" letter-spacing="1.35000002" fill="#FFFFFF">
                <tspan x="14.8410038" y="184.45029">WORLd</tspan>
            </text>
            <text id="react" transform="translate(176.658996, 229.569395) rotate(-20.000000) translate(-176.658996, -229.569395) " font-family="TrashHand" font-size="120" font-weight="normal" letter-spacing="1.35000002" fill="#FFFFFF">
                <tspan x="68.1589962" y="257.069395">react</tspan>
            </text>
            <g id="react-logo-official" transform="translate(226.000000, 15.000000)">
                <ellipse id="Oval" fill="#00D8FF" cx="29.2453738" cy="26.204385" rx="5.41153365" ry="5.41170846"></ellipse>
                <path d="M29.2453738,15.2012502 C36.5110915,15.2012502 43.2607573,16.2438512 48.3499742,17.9959386 C54.4817585,20.1069224 58.2518284,23.3068929 58.2518284,26.204385 C58.2518284,29.2238825 54.2562015,32.6232039 47.6715774,34.804953 C42.6932512,36.4544523 36.1424984,37.3153937 29.2453738,37.3153937 C22.1740385,37.3153937 15.4778764,36.5072027 10.4446442,34.7867223 C4.07532939,32.6096118 0.238919117,29.16617 0.238919117,26.204385 C0.238919117,23.3304094 3.8385539,20.1552499 9.88414968,18.0473944 C14.9923518,16.2665047 21.9086773,15.2012502 29.2453738,15.2012502 L29.2453738,15.2012502 Z" id="Shape" stroke="#00D8FF" stroke-width="2.56628736"></path>
                <path d="M19.6672386,20.7345325 C23.2969692,14.4403079 27.5720884,9.11392772 31.6322218,5.58041121 C36.5241438,1.32306104 41.1795061,-0.344345381 43.6894342,1.10310621 C46.3050753,2.61150655 47.2536875,7.77122165 45.8540692,14.5653338 C44.7958608,19.7020717 42.2691048,25.8070856 38.823509,31.7821114 C35.2908617,37.9080527 31.2456143,43.3050904 27.2407105,46.8059211 C22.1728519,51.2360852 17.2734869,52.8391988 14.7077897,51.3596008 C12.2182491,49.9237996 11.2660772,45.2193122 12.4604181,38.928971 C13.4695456,33.6140254 16.0020186,27.0903531 19.6672386,20.7345325 L19.6672386,20.7345325 Z" id="Shape" stroke="#00D8FF" stroke-width="2.56628736"></path>
                <path d="M19.6764076,31.7980767 C16.0362135,25.509893 13.5568127,19.1458741 12.5233065,13.8635064 C11.2780508,7.49905587 12.1584889,2.63286557 14.6660439,1.1812069 C17.2790961,-0.331616264 22.2229038,1.42327586 27.4098513,6.02905864 C31.331587,9.51122718 35.3586043,14.7492587 38.8142321,20.7185672 C42.3571271,26.8385755 45.0125724,33.0387341 46.0454313,38.2569168 C47.3524968,44.8602001 46.294504,49.9055689 43.7312879,51.3894818 C41.2441204,52.8293823 36.6928531,51.3049087 31.8397644,47.1285718 C27.7392875,43.5999096 23.3523067,38.1477485 19.6764076,31.7980767 L19.6764076,31.7980767 Z" id="Shape" stroke="#00D8FF" stroke-width="2.56628736"></path>
            </g>
        </g>
    </g>
</svg>