<?xml version="1.0" encoding="UTF-8" standalone="no"?>
<svg width="312px" height="312px" viewBox="0 0 312 312" version="1.1" xmlns="http://www.w3.org/2000/svg" xmlns:xlink="http://www.w3.org/1999/xlink" style="background: #222222;">
    <!-- Generator: Sketch 3.7.2 (28276) - http://www.bohemiancoding.com/sketch -->
    <title>Artboard 88</title>
    <desc>Created with Sketch.</desc>
    <defs></defs>
    <g id="Page-1" stroke="none" stroke-width="1" fill="none" fill-rule="evenodd">
        <g id="Artboard-88">
            <g id="rwr-logo-vector" transform="translate(46.000000, 43.000000)">
                <rect id="Rectangle-18" fill="#222222" x="0" y="0" width="212" height="212"></rect>
                <path d="M47.7215317,69.8279088 C47.8967497,70.0604612 47.9843573,70.3220787 47.9843573,70.6127691 C47.9843573,71.9499453 46.5826346,72.9673467 43.7791471,73.6650038 C40.6836297,71.281342 36.8288922,67.618697 32.2148191,62.6769591 C27.075092,57.1538402 23.2495571,53.3167836 20.7380996,51.1656742 C20.5628816,52.6772646 20.2416535,56.6305956 19.7744056,63.0257859 C19.4823756,67.8512476 18.9567296,71.6883042 18.1974517,74.5370708 C18.0806398,74.5370708 17.7156078,74.6824139 17.1023449,74.9731043 C16.489082,75.2637948 15.9780373,75.3510006 15.5691954,75.2347244 C12.9993318,74.6533435 11.7144194,72.8801583 11.7144194,69.9151155 C11.7144194,69.0430441 11.8312296,67.8802997 12.0648535,66.4268474 C12.2984775,64.7408426 12.4444903,63.6943727 12.5028963,63.287406 C12.7365202,59.9153966 12.882533,55.9039283 12.940939,51.2528809 L12.940939,41.7473501 C12.940939,33.8405695 13.3789773,27.1838576 14.2550672,21.777015 C14.8391271,18.1724532 18.2558262,16.5155424 24.505267,16.8062328 C27.6591905,16.922509 30.4042308,18.492214 32.7404704,21.5153948 C34.901492,24.3060233 35.9819865,27.3291588 35.9819865,30.584892 C35.9819865,33.3173824 34.9598971,36.0498318 32.9156874,38.7823222 C31.1635078,41.2241221 29.0025186,43.1426504 26.4326551,44.5379647 C25.3813472,45.1193456 24.8557012,45.758855 24.8557012,46.4565122 C24.8557012,47.2123074 25.4689549,48.1134343 26.6954807,49.15992 C27.6299765,49.9157152 28.5644583,50.6714991 29.4989542,51.4272943 C29.5573601,51.4854324 32.7696414,54.3922934 39.1358942,60.1479647 C43.1659075,63.7525265 46.027758,66.9791422 47.7215317,69.8279088 L47.7215317,69.8279088 Z M29.2361285,30.6720988 C29.4113465,29.6256131 29.4697516,28.6954175 29.4113456,27.8814842 C29.2361276,26.6605843 28.7250829,25.5559771 27.8781961,24.5676295 C27.0313092,23.5792819 25.6733903,23.0851155 23.8043987,23.0851155 C22.4026549,23.0851155 21.5265782,23.5211447 21.1761423,24.3932161 C20.8841124,25.8466684 20.7380996,27.5035792 20.7380996,29.3639982 C20.7380996,30.1197934 20.8257072,32.0673903 21.0009252,35.2068474 C21.1177372,37.5905092 21.1177372,39.5381061 21.0009252,41.0496965 C25.8486223,37.4451347 28.5936626,33.9859701 29.2361285,30.6720988 L29.2361285,30.6720988 Z M74.2888232,25.6141099 C72.1278016,26.4861813 68.9447229,27.5035827 64.7394917,28.6663446 C60.5342605,29.8291064 57.3511818,30.8465078 55.1901602,31.7185792 C54.6645063,33.2301696 54.2848731,36.6021285 54.0512491,41.8345569 C54.985745,42.1833854 56.0662395,42.3577971 57.2927653,42.3577971 C58.1688552,42.3577971 59.5413753,42.212454 61.410367,41.9217636 C63.2793586,41.6310731 64.6518788,41.48573 65.5279686,41.48573 C67.1633363,41.48573 68.565059,41.8345534 69.7331788,42.5322105 C70.5508627,43.6949723 70.9596985,44.4507562 70.9596985,44.7995848 C70.9596985,45.2065514 70.7552806,45.5263062 70.3464386,45.7588585 C70.2296267,45.8169966 69.8207909,46.2239572 69.119919,46.9797524 C68.6526711,47.5029952 68.06862,47.7355441 67.3677481,47.677406 C66.1412223,47.9680965 63.8926255,48.1425081 60.6218901,48.2006462 C57.8768086,48.2587843 55.6866168,48.6076077 54.0512491,49.2471267 C52.9415353,53.5493456 52.3866868,56.950373 52.3866868,59.450311 C52.3866868,61.1363157 52.6203072,62.4734718 53.0875551,63.4618194 C55.8326366,65.3803765 60.5926533,66.1942976 67.3677481,65.9036071 C67.834996,65.9036071 68.3314395,65.6855926 68.8570934,65.2495569 C69.3827473,64.8135212 69.8207856,64.5955066 70.1712216,64.5955066 C71.8065893,64.246678 72.8870838,65.4675597 73.4127378,68.2581881 C73.5879557,69.1883976 73.4273417,70.0459216 72.9308907,70.8307859 C72.4344398,71.6156502 71.7189772,72.037145 70.7844814,72.0952831 C63.7173567,72.3278355 57.5848198,71.7755319 52.3866868,70.4383557 C50.7513191,70.0313891 49.2619887,69.1302622 47.9186509,67.7349479 C46.5753132,66.3396337 45.8160467,64.7699287 45.6408287,63.0257859 C45.1151748,57.9677718 45.1151748,53.4330685 45.6408287,49.4215401 C44.005461,48.3169163 43.2753971,47.2413777 43.4506151,46.194892 C43.5090211,45.6716492 43.9616607,45.1920171 44.8085475,44.7559814 C45.6554344,44.3199457 46.1372766,43.8693823 46.2540885,43.4042775 C46.3709005,42.9391728 46.604521,40.1776548 46.9549569,35.1196407 C43.6842215,34.4801216 42.0780809,33.25924 42.1364869,31.4569591 C42.1948929,29.7709544 43.2169824,28.4337983 45.202786,27.4454507 C47.0717777,26.6896555 48.9407413,25.9338716 50.8097329,25.1780764 C53.0291605,24.0734526 55.7742008,23.0851199 59.0449362,22.2130485 C61.8484237,21.4572533 64.6810717,20.730538 67.5429652,20.0328809 C67.8349951,19.9747428 68.1854258,19.9456742 68.5942677,19.9456742 C70.1712294,19.9456742 72.0109905,20.556115 74.1136061,21.777015 C74.1720121,22.0095673 74.3180249,22.4455965 74.5516488,23.0851155 C74.7852728,23.7246345 74.902083,24.1897323 74.902083,24.4804228 C74.902083,24.9455275 74.6976651,25.3234195 74.2888232,25.6141099 L74.2888232,25.6141099 Z M108.740884,65.0315401 C109.09132,65.9617496 109.266535,66.7756707 109.266535,67.4733278 C109.266535,68.6360897 108.770092,69.653491 107.77719,70.5255624 C106.784288,71.3976338 106.112629,71.8045944 105.762193,71.7464563 C102.9003,71.2232135 101.089741,68.9267932 100.330463,64.8571267 C99.5127796,60.4386316 98.5490952,56.746918 97.4393814,53.7818753 C95.4535778,53.9562896 93.467804,54.1307012 91.4820003,54.3051155 C89.2041667,54.595806 87.4228108,55.2934526 86.137879,56.3980764 C85.4954132,58.2003573 84.648539,61.3979045 83.5972312,65.9908138 C82.6043294,70.2348946 81.640645,73.4615104 80.7061492,75.670758 C80.2389013,76.7172436 79.2460144,77.0079298 77.7274586,76.542825 C75.800061,75.903306 74.7779715,75.0312477 74.6611595,73.9266239 C74.4859416,71.7173763 75.1283978,68.7523781 76.5885475,65.0315401 C78.3407272,60.7874593 79.3044116,57.7643238 79.4796296,55.9620429 C79.5380355,55.4388 79.1584023,54.8574278 78.3407185,54.2179088 C77.5230346,53.5783898 77.1141988,53.0842234 77.1141988,52.7353948 C77.1141988,52.4447044 77.2456103,52.139484 77.5084373,51.8197244 C77.7712642,51.4999649 78.3845179,51.2383474 79.3482167,51.0348641 C80.3119156,50.8313808 80.8521629,50.5261604 80.9689748,50.1191937 C82.0202826,47.2122891 83.6848284,41.8055275 85.9626619,33.8987468 C87.8900596,27.0384518 89.6130104,21.7770333 91.1315661,18.1143334 C91.4820021,17.3004001 92.212066,16.8934395 93.3217798,16.8934395 C94.1394636,16.8934395 94.8695276,17.155057 95.5119934,17.6782999 C97.1473611,19.0736141 98.1986532,21.1665541 98.6659011,23.9571825 C99.016337,26.3408444 99.3375651,28.7244704 99.6295951,31.1081323 C102.549895,44.8287223 105.58696,56.1364118 108.740884,65.0315401 L108.740884,65.0315401 Z M95.9500362,48.3750596 C95.7748182,46.2239502 95.395185,43.8112555 94.8111251,41.1369032 C94.2270652,38.8113795 93.6722166,36.4858906 93.1465627,34.1603669 C91.394383,38.9858287 89.8758501,43.811218 88.5909183,48.6366798 C89.5254141,48.4622655 91.9784289,48.3750596 95.9500362,48.3750596 L95.9500362,48.3750596 Z M138.199257,59.1014842 C138.082445,59.1596223 134.665746,61.572317 127.949058,66.3396407 C124.035856,69.1302691 120.560752,71.1941405 117.523641,72.5313166 C117.173205,72.7057309 116.822774,72.7929367 116.472338,72.7929367 C115.654654,72.7929367 114.895388,72.2697017 114.194516,71.2232161 C113.143208,69.8279018 112.588359,69.1011866 112.529953,69.0430485 C112.413141,63.9268963 112.73437,56.8050867 113.493647,47.677406 C114.369737,37.9683444 114.807776,30.9628093 114.807776,26.6605904 C114.807776,23.6955476 114.690965,20.904961 114.457341,18.2887468 C115.216619,17.5329516 116.180304,17.1550596 117.348423,17.1550596 C119.567851,17.1550596 120.852764,17.9689807 121.2032,19.5968474 C121.378417,24.364171 121.174,31.5005149 120.58994,41.0060932 C120.00588,50.5116714 119.772259,57.6480153 119.889071,62.415339 C121.524439,61.7176819 123.656226,60.4968002 126.284495,58.7526574 C129.146389,56.7759622 131.21977,55.4678748 132.504702,54.8283557 C132.796732,54.8283557 133.307777,54.7702185 134.037851,54.6539423 C134.767926,54.5376661 135.308174,54.4795289 135.65861,54.4795289 C136.826729,54.4795289 137.673603,54.9446267 138.199257,55.8748362 C138.900129,57.1538742 138.900129,58.2294128 138.199257,59.1014842 L138.199257,59.1014842 Z" id="Real" fill="#FFFFFF" transform="translate(75.219665, 46.765591) rotate(-9.000000) translate(-75.219665, -46.765591) "></path>
                <path d="M50.4078387,81.0754241 C51.7511764,81.7149431 52.4228352,82.6451387 52.4228352,83.8660386 C52.4228352,84.6799719 52.0724045,85.7845791 51.3715327,87.1798934 C50.4954428,89.0403124 50.0282019,90.0867824 49.9697959,90.3193347 C48.5680522,94.6215536 47.2393359,101.161991 45.9836071,109.940843 C44.7278783,118.719695 43.4575671,125.172927 42.1726354,129.300731 C41.8221994,130.463493 40.8293125,131.044865 39.1939448,131.044865 C38.4346669,131.044865 37.7630081,130.899522 37.1789483,130.608832 C35.0179266,129.504208 33.4701912,127.353131 32.5356953,124.155536 C32.4772893,123.864845 31.9224408,120.957984 30.871133,115.434865 C30.345479,112.527961 29.8490356,109.417619 29.3817877,106.103748 C28.5641038,107.731615 27.4836092,111.772152 26.1402715,118.22548 C24.9721517,123.806737 23.5996315,127.353107 22.0226698,128.864698 C21.5554219,129.329803 20.7377503,129.38794 19.5696305,129.039111 C17.8174509,128.806559 16.6493486,127.760089 16.0652887,125.89967 C15.7148528,124.271803 15.3644221,122.643961 15.0139862,121.016095 C13.9626784,116.830152 13.1304055,110.318783 12.5171426,101.481793 C11.9038797,92.6448026 11.0716069,86.1915711 10.020299,82.1219046 C9.84508108,81.4242474 9.93268875,80.7556694 10.2831247,80.1161504 C10.6335606,79.4766313 11.1300041,79.127808 11.77247,79.0696699 C12.2397179,78.9533937 12.7069588,78.8952565 13.1742067,78.8952565 C14.8095744,78.8952565 16.0652843,79.6219718 16.9413742,81.0754241 C17.87587,85.959024 18.9855671,95.4644596 20.2704989,109.592016 C20.7377468,108.603669 21.2779941,106.757812 21.891257,104.054391 C22.5045199,101.350969 23.1031723,99.388838 23.6872322,98.1679381 C24.2128861,95.9586905 24.7093296,93.7494761 25.1765775,91.5402286 C25.8774493,88.8658763 27.3375772,87.5287202 29.5570048,87.5287202 C30.1410647,87.5287202 30.7835209,87.615926 31.4843928,87.7903403 C31.5427988,88.1391689 31.8056218,88.3426491 32.2728697,88.4007872 C32.7401176,88.4589253 33.0029406,88.5461312 33.0613466,88.6624074 C34.3462784,91.5111739 35.3099627,95.3191619 35.9524286,100.086486 C36.9453304,106.830504 37.5585841,110.725698 37.7922081,111.772184 C38.7267039,106.597894 39.6903883,101.45275 40.6832901,96.3365973 C41.9098159,90.3483737 43.4867539,85.4648471 45.4141516,81.685871 C45.8229935,80.9300758 46.6698676,80.5521839 47.9547994,80.5521839 C48.8892952,80.5521839 49.7069668,80.7265956 50.4078387,81.0754241 L50.4078387,81.0754241 Z M86.9625044,107.150229 C83.5165511,114.882595 78.6397241,119.475435 72.3318773,120.928888 C71.5725994,121.103302 70.8133329,121.190508 70.0540551,121.190508 C66.7249137,121.190508 63.3666197,119.388254 59.9790723,115.783692 C57.7012387,113.341892 56.562339,110.173414 56.562339,106.278162 C56.562339,101.975943 57.8472515,97.3540336 60.417115,92.4122956 C61.5268288,90.3193243 62.8701464,88.5170704 64.4471081,87.00548 C66.2576938,85.2031991 67.9806446,84.3020722 69.6160123,84.3020722 C70.5505082,84.3020722 71.4265849,84.6508955 72.2442687,85.3485526 C73.0619526,86.0462097 75.2521443,86.9764053 78.8149097,88.1391671 C81.6183971,89.0693766 83.604171,90.6390816 84.7722908,92.8483291 C86.8165004,96.7435814 87.8385899,100.086472 87.8385899,102.8771 C87.8385899,104.446829 87.5465643,105.871191 86.9625044,107.150229 L86.9625044,107.150229 Z M126.563478,129.281886 C125.868149,129.732422 124.881917,130.116598 123.604779,130.434419 C120.509261,128.050757 116.654524,124.388112 112.040451,119.446374 C106.900724,113.923255 103.075189,110.086198 100.563731,107.935089 C100.388513,109.446679 100.067285,113.40001 99.6000372,119.795201 C99.3080072,124.620662 98.7823612,128.457719 98.0230833,131.306486 C97.9062714,131.306486 97.5412394,131.451829 96.9279765,131.742519 C96.3147136,132.03321 95.8036689,132.120415 95.394827,132.004139 C92.8249634,131.422758 91.5400509,129.649573 91.5400509,126.68453 C91.5400509,125.812459 91.6568612,124.649714 91.8904851,123.196262 C92.1241091,121.510257 92.2701219,120.463787 92.3285279,120.056821 C92.5621518,116.684811 92.7081646,112.673343 92.7665706,108.022296 L92.7665706,98.5167649 C92.7665706,90.6099842 93.2046089,83.9532724 94.0806988,78.5464297 C94.6647587,74.9418679 98.0814578,73.2849571 104.330899,73.5756476 C107.484822,73.6919238 110.229862,75.2616287 112.566102,78.2848096 C114.727124,81.0754381 115.807618,84.0985736 115.807618,87.3543068 C115.807618,90.0867972 114.785529,92.8192466 112.741319,95.551737 C110.989139,97.9935369 108.82815,99.9120652 106.258287,101.307379 C105.206979,101.88876 104.681333,102.52827 104.681333,103.225927 C104.681333,103.981722 105.294587,104.882849 106.521112,105.929335 C107.455608,106.68513 108.39009,107.440914 109.324586,108.196709 C109.382992,108.254847 112.595273,111.161708 118.961526,116.917379 C120.743956,118.511637 122.29787,120.031961 123.623277,121.478359 C123.703543,116.909733 124.025907,111.232582 124.590375,104.446821 C125.466465,94.7377592 125.904503,87.732224 125.904503,83.4300051 C125.904503,80.4649624 125.787693,77.6743757 125.554069,75.0581615 C126.313347,74.3023663 127.277031,73.9244744 128.445151,73.9244744 C130.664578,73.9244744 131.949491,74.7383955 132.299927,76.3662621 C132.475145,81.1335858 132.270727,88.2699297 131.686667,97.7755079 C131.102607,107.281086 130.868987,114.41743 130.985799,119.184754 C132.621166,118.487097 134.752953,117.266215 137.381223,115.522072 C140.243116,113.545377 142.316498,112.23729 143.601429,111.59777 C143.893459,111.59777 144.404504,111.539633 145.134579,111.423357 C145.864654,111.307081 146.404901,111.248944 146.755337,111.248944 C147.923457,111.248944 148.770331,111.714041 149.295985,112.644251 C149.996857,113.923289 149.996857,114.998828 149.295985,115.870899 C149.179173,115.929037 145.762474,118.341732 139.045785,123.109055 C135.132584,125.899684 131.657479,127.963555 128.620368,129.300731 C128.269932,129.475146 127.919501,129.562351 127.569065,129.562351 C127.223433,129.562351 126.888237,129.468864 126.563478,129.281886 Z M79.9538208,101.743413 C79.5449788,97.4993321 78.4060791,94.970363 76.5370875,94.1564297 C76.2450575,94.0401535 75.9822345,93.9820163 75.7486106,93.9820163 C75.0477387,93.9820163 74.171662,94.5633885 73.1203542,95.7261504 C71.9522344,97.0633265 71.0469551,97.848179 70.4044893,98.0807314 C69.9956473,98.2551457 69.4115962,98.080734 68.6523183,97.5574912 C67.8930405,97.0342483 67.396597,96.7726308 67.1629731,96.7726308 C66.9877551,96.7726308 66.8417423,96.830768 66.7249303,96.9470442 C64.6807207,98.691187 63.6586312,101.394568 63.6586312,105.057268 C63.6586312,107.557206 64.2426824,109.679214 65.4108021,111.423357 C67.0461698,113.807019 68.41869,114.998832 69.5284038,114.998832 C72.0982673,114.998832 74.5804846,113.400058 76.9751302,110.202463 C79.2529638,107.179282 80.2458507,104.359627 79.9538208,101.743413 Z M109.06176,87.4415135 C109.236978,86.3950278 109.295383,85.4648323 109.236977,84.650899 C109.061759,83.429999 108.550714,82.3253918 107.703828,81.3370442 C106.856941,80.3486966 105.499022,79.8545303 103.63003,79.8545303 C102.228287,79.8545303 101.35221,80.2905594 101.001774,81.1626308 C100.709744,82.6160831 100.563731,84.272994 100.563731,86.1334129 C100.563731,86.8892082 100.651339,88.8368051 100.826557,91.9762621 C100.943369,94.3599239 100.943369,96.3075208 100.826557,97.8191113 C105.674254,94.2145495 108.419294,90.7553848 109.06176,87.4415135 L109.06176,87.4415135 Z M178.141098,106.714195 C177.557039,108.051371 177.00219,109.388527 176.476536,110.725703 C175.775664,112.295432 175.016398,113.545382 174.198714,114.475592 C172.388128,116.742977 170.57757,118.98126 168.766984,121.190508 C166.605962,123.86486 164.649391,125.725251 162.897212,126.771737 C162.313152,127.469394 161.670695,128.196109 160.969824,128.951905 C160.268952,129.7077 159.56809,130.085592 158.867218,130.085592 C158.516782,130.085592 158.107947,129.998386 157.640699,129.823972 C157.173451,129.649557 156.662406,129.446077 156.107549,129.213525 C155.552692,128.980972 155.158458,128.60308 154.924834,128.079838 C154.749616,125.638038 154.662008,123.021863 154.662008,120.231234 C154.662008,117.382468 154.778818,113.13845 155.012442,107.499055 C155.246066,101.85966 155.362877,97.6156432 155.362877,94.7668766 C155.362877,90.9879006 155.216864,87.5287359 154.924834,84.3892789 C154.866428,84.3311408 154.223972,83.6625627 152.997446,82.3835247 C152.238168,81.6277295 151.858535,80.9300828 151.858535,80.2905638 C151.858535,79.9998733 151.91694,79.7091872 152.033752,79.4184967 C152.325782,78.7208396 152.968238,78.3138791 153.96114,78.1976029 C154.720418,78.0813267 155.479684,77.9941209 156.238962,77.9359828 C161.145065,78.9824685 166.284715,81.7149178 171.658066,86.1334129 C173.05981,87.2961748 174.19871,88.5170565 175.074799,89.7960945 C177.878287,93.9238991 179.28001,97.7900243 179.28001,101.394586 C179.28001,103.255005 178.900376,105.02819 178.141098,106.714195 L178.141098,106.714195 Z M171.833283,97.3830777 C171.307629,93.7203779 168.182956,90.4937621 162.459169,87.7031336 C162.050327,97.4121952 161.933517,107.702483 162.108735,118.574307 C168.708611,112.004702 172.0085,105.754951 172.0085,99.8248655 C172.0085,99.0109321 171.950095,98.1970111 171.833283,97.3830777 L171.833283,97.3830777 Z" id="WORLd" fill="#FFFFFF" transform="translate(94.606350, 102.798540) rotate(-14.000000) translate(-94.606350, -102.798540) "></path>
                <path d="M84.8525194,179.378038 C85.0277374,179.61059 85.115345,179.872208 85.115345,180.162898 C85.115345,181.500074 83.7136223,182.517476 80.9101348,183.215133 C77.8146174,180.831471 73.9598799,177.168826 69.3458068,172.227088 C64.2060797,166.703969 60.3805448,162.866913 57.8690873,160.715803 C57.6938693,162.227394 57.3726412,166.180725 56.9053933,172.575915 C56.6133633,177.401377 56.0877173,181.238433 55.3284395,184.0872 C55.2116275,184.0872 54.8465955,184.232543 54.2333326,184.523233 C53.6200697,184.813924 53.109025,184.90113 52.7001831,184.784853 C50.1303196,184.203472 48.8454071,182.430287 48.8454071,179.465244 C48.8454071,178.593173 48.9622173,177.430429 49.1958412,175.976976 C49.4294652,174.290972 49.575478,173.244502 49.633884,172.837535 C49.8675079,169.465526 50.0135207,165.454057 50.0719267,160.80301 L50.0719267,151.297479 C50.0719267,143.390698 50.5099651,136.733987 51.3860549,131.327144 C51.9701148,127.722582 55.3868139,126.065671 61.6362548,126.356362 C64.7901782,126.472638 67.5352185,128.042343 69.8714581,131.065524 C72.0324797,133.856152 73.1129743,136.879288 73.1129743,140.135021 C73.1129743,142.867511 72.0908848,145.599961 70.0466752,148.332451 C68.2944955,150.774251 66.1335063,152.692779 63.5636428,154.088094 C62.512335,154.669475 61.9866889,155.308984 61.9866889,156.006641 C61.9866889,156.762436 62.5999426,157.663563 63.8264684,158.710049 C64.7609642,159.465844 65.695446,160.221628 66.6299419,160.977423 C66.6883479,161.035561 69.9006291,163.942422 76.2668819,169.698094 C80.2968952,173.302655 83.1587457,176.529271 84.8525194,179.378038 L84.8525194,179.378038 Z M66.3671162,140.222228 C66.5423342,139.175742 66.6007393,138.245546 66.5423333,137.431613 C66.3671154,136.210713 65.8560706,135.106106 65.0091838,134.117758 C64.1622969,133.129411 62.804378,132.635244 60.9353864,132.635244 C59.5336426,132.635244 58.657566,133.071274 58.30713,133.943345 C58.0151001,135.396797 57.8690873,137.053708 57.8690873,138.914127 C57.8690873,139.669922 57.956695,141.617519 58.1319129,144.756976 C58.2487249,147.140638 58.2487249,149.088235 58.1319129,150.599825 C62.97961,146.995264 65.7246503,143.536099 66.3671162,140.222228 L66.3671162,140.222228 Z M111.419811,135.164239 C109.258789,136.03631 106.075711,137.053712 101.870479,138.216474 C97.6652482,139.379235 94.4821695,140.396637 92.3211479,141.268708 C91.795494,142.780299 91.4158608,146.152257 91.1822368,151.384686 C92.1167327,151.733514 93.1972273,151.907926 94.423753,151.907926 C95.2998429,151.907926 96.672363,151.762583 98.5413547,151.471893 C100.410346,151.181202 101.782867,151.035859 102.658956,151.035859 C104.294324,151.035859 105.696047,151.384682 106.864167,152.082339 C107.68185,153.245101 108.090686,154.000885 108.090686,154.349714 C108.090686,154.75668 107.886268,155.076435 107.477426,155.308987 C107.360614,155.367126 106.951779,155.774086 106.250907,156.529881 C105.783659,157.053124 105.199608,157.285673 104.498736,157.227535 C103.27221,157.518225 101.023613,157.692637 97.7528778,157.750775 C95.0077963,157.808913 92.8176045,158.157737 91.1822368,158.797256 C90.072523,163.099475 89.5176745,166.500502 89.5176745,169.00044 C89.5176745,170.686445 89.7512949,172.023601 90.2185428,173.011948 C92.9636243,174.930505 97.7236411,175.744427 104.498736,175.453736 C104.965984,175.453736 105.462427,175.235722 105.988081,174.799686 C106.513735,174.36365 106.951773,174.145636 107.302209,174.145636 C108.937577,173.796807 110.018072,175.017689 110.543725,177.808317 C110.718943,178.738527 110.558329,179.596051 110.061878,180.380915 C109.565428,181.165779 108.849965,181.587274 107.915469,181.645412 C100.848344,181.877964 94.7158075,181.325661 89.5176745,179.988485 C87.8823068,179.581518 86.3929764,178.680391 85.0496386,177.285077 C83.7063009,175.889763 82.9470344,174.320058 82.7718164,172.575915 C82.2461625,167.517901 82.2461625,162.983197 82.7718164,158.971669 C81.1364487,157.867045 80.4063848,156.791507 80.5816028,155.745021 C80.6400088,155.221778 81.0926484,154.742146 81.9395353,154.30611 C82.7864221,153.870075 83.2682643,153.419511 83.3850763,152.954406 C83.5018882,152.489302 83.7355087,149.727784 84.0859446,144.66977 C80.8152092,144.030251 79.2090686,142.809369 79.2674746,141.007088 C79.3258806,139.321083 80.3479701,137.983927 82.3337737,136.99558 C84.2027654,136.239784 86.071729,135.484001 87.9407206,134.728205 C90.1601482,133.623582 92.9051886,132.635249 96.1759239,131.763177 C98.9794114,131.007382 101.812059,130.280667 104.673953,129.58301 C104.965983,129.524872 105.316414,129.495803 105.725255,129.495803 C107.302217,129.495803 109.141978,130.106244 111.244594,131.327144 C111.303,131.559696 111.449013,131.995725 111.682637,132.635244 C111.916261,133.274763 112.033071,133.739861 112.033071,134.030552 C112.033071,134.495656 111.828653,134.873548 111.419811,135.164239 L111.419811,135.164239 Z M145.871872,174.581669 C146.222308,175.511879 146.397523,176.3258 146.397523,177.023457 C146.397523,178.186219 145.901079,179.20362 144.908178,180.075691 C143.915276,180.947763 143.243617,181.354723 142.893181,181.296585 C140.031288,180.773342 138.220729,178.476922 137.461451,174.407256 C136.643767,169.988761 135.680083,166.297047 134.570369,163.332004 C132.584566,163.506419 130.598792,163.68083 128.612988,163.855244 C126.335154,164.145935 124.553799,164.843582 123.268867,165.948205 C122.626401,167.750486 121.779527,170.948033 120.728219,175.540943 C119.735317,179.785024 118.771633,183.011639 117.837137,185.220887 C117.369889,186.267373 116.377002,186.558059 114.858446,186.092954 C112.931049,185.453435 111.908959,184.581377 111.792147,183.476753 C111.616929,181.267505 112.259386,178.302507 113.719535,174.581669 C115.471715,170.337588 116.435399,167.314453 116.610617,165.512172 C116.669023,164.988929 116.28939,164.407557 115.471706,163.768038 C114.654022,163.128519 114.245187,162.634352 114.245187,162.285524 C114.245187,161.994833 114.376598,161.689613 114.639425,161.369853 C114.902252,161.050094 115.515506,160.788476 116.479204,160.584993 C117.442903,160.38151 117.983151,160.076289 118.099963,159.669323 C119.15127,156.762418 120.815816,151.355656 123.09365,143.448876 C125.021047,136.588581 126.743998,131.327162 128.262554,127.664462 C128.61299,126.850529 129.343054,126.443568 130.452768,126.443568 C131.270451,126.443568 132.000515,126.705186 132.642981,127.228429 C134.278349,128.623743 135.329641,130.716683 135.796889,133.507312 C136.147325,135.890973 136.468553,138.274599 136.760583,140.658261 C139.680882,154.378851 142.717948,165.686541 145.871872,174.581669 L145.871872,174.581669 Z M174.004702,126.458941 C174.012312,126.368714 174.016117,126.276383 174.016117,126.181948 C174.016117,125.193601 173.811699,124.554091 173.402857,124.263401 C172.059519,123.275053 170.570189,122.780887 168.934821,122.780887 C165.138432,122.780887 161.488112,124.873827 157.983753,129.05977 C151.967936,136.268893 148.960073,145.018545 148.960073,155.308987 C148.960073,157.227545 149.076883,159.20421 149.310507,161.239043 C150.011379,167.808648 150.507822,171.558499 150.799852,172.488708 C151.208694,173.767746 151.836549,175.119437 152.683436,176.54382 C153.530323,177.968203 154.362596,179.348962 155.18028,180.686138 C158.451015,185.976705 161.488081,189.435869 164.291568,191.063736 C165.86853,191.703255 167.036632,192.081147 167.79591,192.197423 C168.496782,192.371838 169.15384,192.081151 169.767102,191.325356 C170.380365,190.569561 170.686992,189.726571 170.686992,188.796362 C170.686992,187.866152 170.219751,187.139437 169.285255,186.616194 C168.409166,186.267366 167.533089,185.889474 166.656999,185.482507 C164.554383,184.261607 162.773028,182.226804 161.312878,179.378038 C160.728818,178.215276 159.765134,175.773513 158.421796,172.052675 C156.786428,167.517903 155.968756,162.692514 155.968756,157.576362 C155.968756,146.704538 159.239443,137.838612 165.780914,130.978317 C165.888384,130.861614 166.025271,130.747352 166.191576,130.63553 C166.308956,130.891318 166.442195,131.179993 166.591293,131.501557 C168.401878,133.013148 170.738083,133.768932 173.599976,133.768932 C174.826502,133.768932 177.045896,133.536383 180.258226,133.071278 C183.061713,132.664311 185.251905,132.518968 186.828867,132.635244 C186.887273,136.821187 186.653652,142.896527 186.127998,150.861446 C185.602344,159.175193 185.339521,165.250533 185.339521,169.087647 C185.339521,171.471309 185.397927,173.73866 185.514739,175.88977 C185.631551,177.575774 186.244804,179.101876 187.354518,180.468122 C188.464232,181.834367 189.865955,182.546548 191.559728,182.604686 C192.435818,182.662824 193.019869,182.226795 193.311899,181.296585 C193.487117,180.715204 193.545522,179.872215 193.487116,178.767591 C193.370304,175.221167 193.311899,171.616659 193.311899,167.95396 C193.311899,158.303036 193.89595,146.239563 195.06407,131.763177 C204.467434,130.251587 211.067212,129.030705 214.863601,128.100496 C216.323751,127.751667 217.316638,126.530786 217.842292,124.437814 C217.842292,123.391329 217.053823,122.868094 215.476861,122.868094 C215.652079,121.996022 215.214041,121.559993 214.162733,121.559993 C212.760989,121.385579 211.008836,121.55999 208.90622,122.083233 C206.044327,122.839029 204.262971,123.245989 203.562099,123.304127 C201.167453,123.943646 198.656034,124.263401 196.027764,124.263401 C193.399495,124.263401 191.06329,123.943646 189.01908,123.304127 C186.507623,124.641303 182.711291,125.571499 177.629969,126.094742 C176.321323,126.213164 175.112901,126.334564 174.004702,126.458941 Z M133.081024,157.925189 C132.905806,155.774079 132.526173,153.361384 131.942113,150.687032 C131.358053,148.361508 130.803204,146.03602 130.27755,143.710496 C128.525371,148.535958 127.006838,153.361347 125.721906,158.186809 C126.656402,158.012394 129.109417,157.925189 133.081024,157.925189 Z" id="react" fill="#FFFFFF" transform="translate(133.343850, 156.870532) rotate(-20.000000) translate(-133.343850, -156.870532) "></path>
                <g id="react-logo-official" transform="translate(162.762742, 9.154182)">
                    <ellipse id="Oval" fill="#00D8FF" cx="20.0917638" cy="17.9092175" rx="3.71775915" ry="3.69859716"></ellipse>
                    <path d="M20.0917638,10.3891962 C25.0833596,10.3891962 29.7204243,11.1017551 33.2167498,12.2992079 C37.4293258,13.7419461 40.0193886,15.9289452 40.0193886,17.9092175 C40.0193886,19.9728736 37.2743667,22.2961178 32.7506867,23.7872201 C29.3305439,24.9145598 24.8301337,25.5029646 20.0917638,25.5029646 C15.23371,25.5029646 10.6334027,24.9506116 7.17553915,23.7747604 C2.79977805,22.2868284 0.164139002,19.9334303 0.164139002,17.9092175 C0.164139002,15.9450174 2.63711173,13.7749752 6.79047573,12.334375 C10.2998441,11.1172375 15.0514052,10.3891962 20.0917638,10.3891962 L20.0917638,10.3891962 Z" id="Shape" stroke="#00D8FF" stroke-width="1.75709589"></path>
                    <path d="M13.5115221,14.1708822 C16.0051708,9.86913511 18.9422057,6.22885497 21.7315441,3.81389596 C25.0923266,0.904237511 28.2905911,-0.235340624 30.0149282,0.75391081 C31.8118908,1.78481726 32.4635936,5.31119119 31.5020467,9.95458319 C30.7750505,13.4652535 29.0391526,17.6376858 26.6720056,21.7212785 C24.2450537,25.9080136 21.4659422,29.596584 18.714547,31.9892041 C15.2328949,35.0169712 11.8669989,36.1126088 10.1043481,35.1013871 C8.39401736,34.120098 7.73986901,30.9048466 8.56038906,26.6057536 C9.25366625,22.9732884 10.9934919,18.5147267 13.5115221,14.1708822 L13.5115221,14.1708822 Z" id="Shape" stroke="#00D8FF" stroke-width="1.75709589"></path>
                    <path d="M13.5178212,21.7321899 C11.016984,17.4345715 9.31361935,13.0851238 8.60359383,9.47492379 C7.74809496,5.12518125 8.35296171,1.79941495 10.0756685,0.807288217 C11.8708525,-0.226640992 15.2672808,0.972728686 18.8307478,4.12052115 C21.525006,6.50038672 24.2915933,10.0802855 26.6656323,14.1599708 C29.0996244,18.3426509 30.9239328,22.5801092 31.6335137,26.1464425 C32.5314762,30.6594137 31.8046283,34.1076384 30.043682,35.1218091 C28.3349816,36.1058997 25.208231,35.0640082 21.8741272,32.2097177 C19.0570726,29.7980764 16.0431881,26.0718321 13.5178212,21.7321899 L13.5178212,21.7321899 Z" id="Shape" stroke="#00D8FF" stroke-width="1.75709589"></path>
                </g>
            </g>
            <path d="M19.229,12.611 C19.229,12.8823347 19.199667,13.1389988 19.141,13.381 C19.082333,13.6230012 19.0053338,13.8466656 18.91,14.052 C18.8146662,14.2573344 18.7046673,14.4443325 18.58,14.613 C18.4553327,14.7816675 18.3306673,14.9246661 18.206,15.042 C17.6046637,15.6213362 16.9630034,15.911 16.281,15.911 C16.0976657,15.911 15.9235008,15.8505006 15.7585,15.7295 C15.5934992,15.6084994 15.4780003,15.4343345 15.412,15.207 C15.3239996,15.3096672 15.2195006,15.4013329 15.0985,15.482 C14.9774994,15.5626671 14.8510007,15.6304997 14.719,15.6855 C14.5869993,15.7405003 14.4550007,15.7826665 14.323,15.812 C14.1909993,15.8413335 14.0736672,15.856 13.971,15.856 C13.6776652,15.856 13.4210011,15.8083338 13.201,15.713 C12.9809989,15.6176662 12.7995007,15.4875008 12.6565,15.3225 C12.5134993,15.1574992 12.407167,14.9595012 12.3375,14.7285 C12.267833,14.4974988 12.233,14.2500013 12.233,13.986 C12.233,13.589998 12.3044993,13.2068352 12.4475,12.8365 C12.5905007,12.4661648 12.7848321,12.1398347 13.0305,11.8575 C13.2761679,11.5751653 13.5694983,11.3496675 13.9105,11.181 C14.2515017,11.0123325 14.619998,10.928 15.016,10.928 C15.2506678,10.928 15.4779989,10.9866661 15.698,11.104 C15.9180011,11.2213339 16.0793328,11.3753324 16.182,11.566 L16.336,11.049 L17.172,11.049 C16.8933319,10.7629986 16.5523353,10.5430008 16.149,10.389 C15.7456647,10.2349992 15.3240022,10.158 14.884,10.158 C14.4659979,10.158 14.0681686,10.2368325 13.6905,10.3945 C13.3128314,10.5521675 12.9810014,10.7739986 12.695,11.06 C12.4089986,11.3460014 12.1835008,11.6833314 12.0185,12.072 C11.8534992,12.4606686 11.771,12.8859977 11.771,13.348 C11.771,13.8906694 11.8553325,14.3691646 12.024,14.7835 C12.1926675,15.1978354 12.4218319,15.5443319 12.7115,15.823 C13.0011681,16.1016681 13.3384981,16.3124993 13.7235,16.4555 C14.1085019,16.5985007 14.5173312,16.67 14.95,16.67 C15.2946684,16.67 15.5971654,16.6461669 15.8575,16.5985 C16.1178346,16.5508331 16.3451657,16.4866671 16.5395,16.406 C16.7338343,16.3253329 16.900666,16.2263339 17.04,16.109 C17.179334,15.9916661 17.3039994,15.863334 17.414,15.724 L19.009,15.724 C18.612998,16.4206701 18.0758367,16.9523315 17.3975,17.319 C16.7191633,17.6856685 15.8886716,17.869 14.906,17.869 C14.2679968,17.869 13.6721694,17.7608344 13.1185,17.5445 C12.5648306,17.3281656 12.084502,17.022002 11.6775,16.626 C11.270498,16.229998 10.9515012,15.7570027 10.7205,15.207 C10.4894988,14.6569972 10.374,14.04467 10.374,13.37 C10.374,12.7319968 10.4913322,12.1380028 10.726,11.588 C10.9606678,11.0379973 11.281498,10.5631687 11.6885,10.1635 C12.095502,9.76383133 12.5739972,9.45033447 13.124,9.223 C13.6740027,8.99566553 14.2643302,8.882 14.895,8.882 C15.4963363,8.882 16.0609974,8.98099901 16.589,9.179 C17.1170026,9.37700099 17.5771647,9.64466498 17.9695,9.982 C18.3618353,10.319335 18.6698322,10.7153311 18.8935,11.17 C19.1171678,11.6246689 19.229,12.1049975 19.229,12.611 L19.229,12.611 Z M15.071,12.05 C14.8656656,12.05 14.6768342,12.114166 14.5045,12.2425 C14.3321658,12.370834 14.1855006,12.533999 14.0645,12.732 C13.9434994,12.930001 13.848167,13.1408322 13.7785,13.3645 C13.708833,13.5881678 13.674,13.798999 13.674,13.997 C13.674,14.195001 13.7106663,14.358166 13.784,14.4865 C13.8573337,14.614834 13.9746659,14.679 14.136,14.679 C14.3413344,14.679 14.5338324,14.6166673 14.7135,14.492 C14.8931676,14.3673327 15.0489993,14.2115009 15.181,14.0245 C15.3130007,13.8374991 15.4174996,13.6303345 15.4945,13.403 C15.5715004,13.1756655 15.61,12.9556677 15.61,12.743 C15.61,12.5303323 15.5660004,12.3616673 15.478,12.237 C15.3899996,12.1123327 15.2543342,12.05 15.071,12.05 L15.071,12.05 Z M17.865,12.721 C17.865,12.5083323 17.8393336,12.3066676 17.788,12.116 C17.7366664,11.9253324 17.6633338,11.7456675 17.568,11.577 C17.4213326,11.9876687 17.278334,12.3799981 17.139,12.754 C16.999666,13.1280019 16.8566674,13.5386644 16.71,13.986 C16.6659998,14.125334 16.6348334,14.2353329 16.6165,14.316 C16.5981666,14.3966671 16.5926666,14.4589998 16.6,14.503 C16.6073334,14.5470002 16.6183333,14.5744999 16.633,14.5855 C16.6476667,14.5965001 16.6659999,14.602 16.688,14.602 C16.8126673,14.602 16.944666,14.5506672 17.084,14.448 C17.223334,14.3453328 17.3498328,14.2078342 17.4635,14.0355 C17.5771672,13.8631658 17.6724996,13.6633345 17.7495,13.436 C17.8265004,13.2086655 17.865,12.9703346 17.865,12.721 L17.865,12.721 Z M23.5124963,12.765 C23.3731623,12.706333 23.2448303,12.6715001 23.1274963,12.6605 C23.0101624,12.6494999 22.9074968,12.6586665 22.8194963,12.688 C22.6434955,12.746667 22.5023302,12.8419993 22.3959963,12.974 C22.2896625,13.1060007 22.2089966,13.2599991 22.1539963,13.436 C22.0989961,13.6120009 22.0641631,13.7953324 22.0494963,13.986 C22.0348296,14.1766676 22.0274963,14.3599991 22.0274963,14.536 L22.0274963,17.374 C22.0274963,17.4620004 22.0146631,17.5224998 21.9889963,17.5555 C21.9633295,17.5885002 21.9101634,17.605 21.8294963,17.605 L20.7734963,17.605 C20.6928293,17.605 20.6414964,17.5903335 20.6194963,17.561 C20.5974962,17.5316665 20.5864963,17.4656672 20.5864963,17.363 L20.5864963,13.007 C20.5864963,12.7723322 20.5828297,12.526668 20.5754963,12.27 C20.568163,12.0133321 20.5644963,11.8006675 20.5644963,11.632 C20.5644963,11.5366662 20.5791629,11.4743335 20.6084963,11.445 C20.6378298,11.4156665 20.6928293,11.401 20.7734963,11.401 L21.8294963,11.401 C21.9394969,11.401 21.9944963,11.4596661 21.9944963,11.577 L21.9944963,11.995 C22.0898301,11.855666 22.2108289,11.7200007 22.3574963,11.588 C22.5041637,11.4559993 22.6581622,11.3753335 22.8194963,11.346 C22.9734971,11.3166665 23.1256623,11.3074999 23.2759963,11.3185 C23.4263304,11.3295001 23.5418293,11.364333 23.6224963,11.423 C23.6591632,11.4523335 23.6829963,11.4798332 23.6939963,11.5055 C23.7049964,11.5311668 23.7104963,11.573333 23.7104963,11.632 L23.7104963,12.589 C23.7104963,12.6696671 23.6958298,12.7283332 23.6664963,12.765 C23.6371629,12.8016669 23.58583,12.8016669 23.5124963,12.765 L23.5124963,12.765 Z M28.5329927,13.491 L27.2789927,17.473 C27.2643259,17.531667 27.2459928,17.5683333 27.2239927,17.583 C27.2019926,17.5976667 27.1506597,17.605 27.0699927,17.605 L26.0139927,17.605 C25.9553257,17.605 25.9113262,17.5976667 25.8819927,17.583 C25.8526592,17.5683333 25.8306594,17.531667 25.8159927,17.473 L23.9349927,11.643 C23.8983258,11.5329995 23.8928259,11.4633335 23.9184927,11.434 C23.9441595,11.4046665 24.0193254,11.39 24.1439927,11.39 L25.1559927,11.39 C25.2293264,11.39 25.2788259,11.3973333 25.3044927,11.412 C25.3301595,11.4266667 25.3503259,11.463333 25.3649927,11.522 L26.5639927,15.526 L27.7959927,11.522 C27.8106594,11.463333 27.8289926,11.4266667 27.8509927,11.412 C27.8729928,11.3973333 27.9243256,11.39 28.0049927,11.39 L29.0609927,11.39 C29.1416597,11.39 29.1929926,11.3973333 29.2149927,11.412 C29.2369928,11.4266667 29.2553259,11.463333 29.2699927,11.522 L30.5019927,15.526 L31.7009927,11.522 C31.7156594,11.463333 31.7358259,11.4266667 31.7614927,11.412 C31.7871595,11.3973333 31.836659,11.39 31.9099927,11.39 L32.9219927,11.39 C33.04666,11.39 33.1218259,11.4046665 33.1474927,11.434 C33.1731595,11.4633335 33.1676595,11.5329995 33.1309927,11.643 L31.2499927,17.473 C31.2353259,17.531667 31.2133262,17.5683333 31.1839927,17.583 C31.1546592,17.5976667 31.1106596,17.605 31.0519927,17.605 L29.9959927,17.605 C29.9153256,17.605 29.8639928,17.5976667 29.8419927,17.583 C29.8199926,17.5683333 29.8016594,17.531667 29.7869927,17.473 L28.5329927,13.491 Z M37.106489,12.765 C36.967155,12.706333 36.8388229,12.6715001 36.721489,12.6605 C36.6041551,12.6494999 36.5014894,12.6586665 36.413489,12.688 C36.2374881,12.746667 36.0963229,12.8419993 35.989989,12.974 C35.8836551,13.1060007 35.8029893,13.2599991 35.747989,13.436 C35.6929887,13.6120009 35.6581557,13.7953324 35.643489,13.986 C35.6288223,14.1766676 35.621489,14.3599991 35.621489,14.536 L35.621489,17.374 C35.621489,17.4620004 35.6086558,17.5224998 35.582989,17.5555 C35.5573222,17.5885002 35.5041561,17.605 35.423489,17.605 L34.367489,17.605 C34.2868219,17.605 34.2354891,17.5903335 34.213489,17.561 C34.1914889,17.5316665 34.180489,17.4656672 34.180489,17.363 L34.180489,13.007 C34.180489,12.7723322 34.1768224,12.526668 34.169489,12.27 C34.1621556,12.0133321 34.158489,11.8006675 34.158489,11.632 C34.158489,11.5366662 34.1731555,11.4743335 34.202489,11.445 C34.2318225,11.4156665 34.2868219,11.401 34.367489,11.401 L35.423489,11.401 C35.5334896,11.401 35.588489,11.4596661 35.588489,11.577 L35.588489,11.995 C35.6838228,11.855666 35.8048216,11.7200007 35.951489,11.588 C36.0981564,11.4559993 36.2521549,11.3753335 36.413489,11.346 C36.5674898,11.3166665 36.7196549,11.3074999 36.869989,11.3185 C37.0203231,11.3295001 37.1358219,11.364333 37.216489,11.423 C37.2531559,11.4523335 37.276989,11.4798332 37.287989,11.5055 C37.2989891,11.5311668 37.304489,11.573333 37.304489,11.632 L37.304489,12.589 C37.304489,12.6696671 37.2898225,12.7283332 37.260489,12.765 C37.2311555,12.8016669 37.1798227,12.8016669 37.106489,12.765 L37.106489,12.765 Z M43.0839853,14.734 C43.076652,14.8220004 43.0564855,14.8898331 43.0234853,14.9375 C42.9904852,14.9851669 42.9299858,15.009 42.8419853,15.009 L39.3989853,15.009 C39.4503189,15.5003358 39.6061507,15.8633322 39.8664853,16.098 C40.12682,16.3326678 40.4366502,16.4573333 40.7959853,16.472 C41.1333204,16.4866667 41.4284841,16.4536671 41.6814853,16.373 C41.9344866,16.2923329 42.1783175,16.1786674 42.4129853,16.032 C42.5156525,15.9659997 42.5853185,15.9476665 42.6219853,15.977 C42.6586522,16.0063335 42.6769853,16.0833327 42.6769853,16.208 L42.6769853,17.033 C42.6769853,17.1136671 42.6678188,17.1686665 42.6494853,17.198 C42.6311519,17.2273335 42.5889857,17.2676664 42.5229853,17.319 C42.3103176,17.4656674 42.0408203,17.5756663 41.7144853,17.649 C41.3881504,17.7223337 41.0673203,17.759 40.7519853,17.759 C39.8719809,17.759 39.1771546,17.4766695 38.6674853,16.912 C38.1578161,16.3473305 37.9029853,15.5443385 37.9029853,14.503 C37.9029853,14.1143314 37.9543182,13.7256686 38.0569853,13.337 C38.1596525,12.9483314 38.3246509,12.5981682 38.5519853,12.2865 C38.7793198,11.9748318 39.0579837,11.7218343 39.3879853,11.5275 C39.717987,11.3331657 40.1103164,11.236 40.5649853,11.236 C41.0269877,11.236 41.4174837,11.3203325 41.7364853,11.489 C42.0554869,11.6576675 42.3158177,11.8849986 42.5174853,12.171 C42.719153,12.4570014 42.8639849,12.7888314 42.9519853,13.1665 C43.0399858,13.5441686 43.0839853,13.9456645 43.0839853,14.371 L43.0839853,14.734 Z M40.5979853,12.512 C40.4439846,12.512 40.300986,12.5486663 40.1689853,12.622 C40.0369847,12.6953337 39.9214858,12.7906661 39.8224853,12.908 C39.7234848,13.0253339 39.637319,13.1609992 39.5639853,13.315 C39.4906516,13.4690008 39.4429855,13.6303325 39.4209853,13.799 L41.6539853,13.799 C41.6539853,13.6523326 41.6301522,13.5020008 41.5824853,13.348 C41.5348184,13.1939992 41.4688191,13.0565006 41.3844853,12.9355 C41.3001516,12.8144994 41.191986,12.7136671 41.0599853,12.633 C40.9279847,12.5523329 40.7739862,12.512 40.5979853,12.512 L40.5979853,12.512 Z M47.6974817,17.627 C47.6314813,17.627 47.5893151,17.6196667 47.5709817,17.605 C47.5526483,17.5903333 47.5434817,17.5463337 47.5434817,17.473 L47.5434817,17 C47.4188144,17.198001 47.2153164,17.366666 46.9329817,17.506 C46.6506469,17.645334 46.3701497,17.715 46.0914817,17.715 C45.7908135,17.715 45.5011497,17.6728338 45.2224817,17.5885 C44.9438136,17.5041662 44.7146492,17.3721676 44.5349817,17.1925 C44.3553141,17.0128324 44.2141489,16.7965013 44.1114817,16.5435 C44.0088145,16.2904987 43.9574817,16.0026683 43.9574817,15.68 C43.9574817,15.2986648 44.0491474,14.9540015 44.2324817,14.646 C44.4158159,14.3379985 44.6596468,14.0978342 44.9639817,13.9255 C45.2683165,13.7531658 45.6294796,13.6285004 46.0474817,13.5515 C46.4654838,13.4744996 46.9274791,13.4506665 47.4334817,13.48 C47.3894815,12.9006638 47.1401506,12.581667 46.6854817,12.523 C46.5388143,12.5083333 46.3903158,12.5119999 46.2399817,12.534 C46.0896476,12.5560001 45.9429824,12.5908331 45.7999817,12.6385 C45.656981,12.6861669 45.5194823,12.7411664 45.3874817,12.8035 C45.255481,12.8658336 45.1381489,12.9299997 45.0354817,12.996 C44.8814809,13.0986672 44.771482,13.15 44.7054817,13.15 C44.6394813,13.15 44.6064817,13.0766674 44.6064817,12.93 L44.6064817,12.017 C44.6064817,11.9216662 44.6156483,11.8538335 44.6339817,11.8135 C44.6523151,11.7731665 44.7054812,11.7310002 44.7934817,11.687 C45.0134828,11.5769995 45.2719802,11.4743338 45.5689817,11.379 C45.8659832,11.2836662 46.2161463,11.236 46.6194817,11.236 C47.3674854,11.236 47.9266465,11.4266648 48.2969817,11.808 C48.6673169,12.1893352 48.8524817,12.7796627 48.8524817,13.579 L48.8524817,16.087 L48.8524817,16.4005 C48.8524817,16.5141672 48.854315,16.6296661 48.8579817,16.747 C48.8616484,16.8643339 48.865315,16.9761661 48.8689817,17.0825 C48.8726484,17.1888339 48.8781483,17.2823329 48.8854817,17.363 C48.9001484,17.5096674 48.8928152,17.5903333 48.8634817,17.605 C48.8341482,17.6196667 48.7828154,17.627 48.7094817,17.627 L47.6974817,17.627 Z M47.5434817,14.591 C47.1254796,14.5983334 46.7808164,14.6294997 46.5094817,14.6845 C46.238147,14.7395003 46.0199825,14.8146662 45.8549817,14.91 C45.6899809,15.0053338 45.5781486,15.1189993 45.5194817,15.251 C45.4608147,15.3830007 45.4314817,15.5296659 45.4314817,15.691 C45.4314817,15.9256678 45.5011476,16.107166 45.6404817,16.2355 C45.7798157,16.363834 45.9741471,16.428 46.2234817,16.428 C46.6194837,16.428 46.9366472,16.2831681 47.1749817,15.9935 C47.4133162,15.7038319 47.5361483,15.2363366 47.5434817,14.591 L47.5434817,14.591 Z M54.653978,17.561 C54.5733109,17.5976668 54.4724786,17.6306665 54.351478,17.66 C54.2304774,17.6893335 54.0984787,17.7131666 53.955478,17.7315 C53.8124773,17.7498334 53.6639788,17.7608333 53.509978,17.7645 C53.3559772,17.7681667 53.209312,17.7626667 53.069978,17.748 C52.6079757,17.7113332 52.1991465,17.6050009 51.843478,17.429 C51.4878096,17.2529991 51.1889792,17.0238347 50.946978,16.7415 C50.7049768,16.4591653 50.5216453,16.1273352 50.396978,15.746 C50.2723107,15.3646648 50.209978,14.9503356 50.209978,14.503 C50.209978,14.0336643 50.2833106,13.601002 50.429978,13.205 C50.5766454,12.808998 50.78381,12.4680014 51.051478,12.182 C51.319146,11.8959986 51.6418095,11.6741675 52.019478,11.5165 C52.3971466,11.3588325 52.8169757,11.28 53.278978,11.28 C53.4916457,11.28 53.7244767,11.2946665 53.977478,11.324 C54.2304793,11.3533335 54.4633103,11.4046663 54.675978,11.478 C54.7419783,11.5000001 54.780478,11.5256665 54.791478,11.555 C54.8024781,11.5843335 54.8043114,11.6393329 54.796978,11.72 L54.686978,12.567 C54.6723113,12.6550004 54.6484782,12.7136665 54.615478,12.743 C54.5824778,12.7723335 54.5109786,12.7686669 54.400978,12.732 C54.2469772,12.673333 54.0599791,12.6311668 53.839978,12.6055 C53.6199769,12.5798332 53.4256455,12.5706666 53.256978,12.578 C52.7509755,12.5926667 52.3604794,12.7741649 52.085478,13.1225 C51.8104766,13.4708351 51.672978,13.9309971 51.672978,14.503 C51.672978,15.0530028 51.8031434,15.496665 52.063478,15.834 C52.3238126,16.171335 52.6886423,16.3656664 53.157978,16.417 C53.3926459,16.4536669 53.6254769,16.4591668 53.856478,16.4335 C54.0874792,16.4078332 54.2909771,16.365667 54.466978,16.307 C54.5843119,16.2703331 54.6558112,16.2611666 54.681478,16.2795 C54.7071448,16.2978334 54.7236446,16.3473329 54.730978,16.428 L54.796978,17.275 C54.8043114,17.3630004 54.7988114,17.4234998 54.780478,17.4565 C54.7621446,17.4895002 54.7199783,17.5243332 54.653978,17.561 L54.653978,17.561 Z M59.0364743,17.528 C58.8898069,17.5940003 58.7138087,17.6508331 58.5084743,17.6985 C58.30314,17.7461669 58.0684757,17.7663334 57.8044743,17.759 C57.5331397,17.7516666 57.2874754,17.683834 57.0674743,17.5555 C56.8474732,17.427166 56.6861415,17.2713343 56.5834743,17.088 C56.4808072,16.8753323 56.4184745,16.635168 56.3964743,16.3675 C56.3744742,16.099832 56.3634743,15.7533355 56.3634743,15.328 L56.3634743,12.732 L55.5824743,12.732 C55.4431403,12.732 55.3734743,12.6586674 55.3734743,12.512 L55.3734743,11.599 C55.3734743,11.4523326 55.4431403,11.379 55.5824743,11.379 L56.3634743,11.379 L56.3634743,9.916 C56.3634743,9.7693326 56.4368069,9.696 56.5834743,9.696 L57.5954743,9.696 C57.7348084,9.696 57.8044743,9.7693326 57.8044743,9.916 L57.8044743,11.379 L58.7394743,11.379 C58.8274748,11.379 58.8843076,11.3954998 58.9099743,11.4285 C58.9356411,11.4615002 58.9484743,11.5183329 58.9484743,11.599 L58.9484743,12.512 C58.9484743,12.5926671 58.9356411,12.6494998 58.9099743,12.6825 C58.8843076,12.7155002 58.8274748,12.732 58.7394743,12.732 L57.8044743,12.732 L57.8044743,15.196 L57.8044743,15.8395 C57.8044743,16.0045008 57.8118076,16.1126664 57.8264743,16.164 C57.8558078,16.303334 57.9181405,16.3913332 58.0134743,16.428 C58.1088082,16.4646669 58.2114738,16.4756667 58.3214743,16.461 C58.4314749,16.4463333 58.5378072,16.4206668 58.6404743,16.384 C58.7431415,16.3473332 58.8238074,16.3143335 58.8824743,16.285 C58.9411413,16.2556665 58.9851409,16.2538332 59.0144743,16.2795 C59.0438078,16.3051668 59.062141,16.3583329 59.0694743,16.439 L59.1684743,17.264 C59.1758077,17.3300003 59.1721411,17.3831665 59.1574743,17.4235 C59.1428076,17.4638335 59.1024747,17.4986665 59.0364743,17.528 L59.0364743,17.528 Z" id="@rwreact" fill="#FFFFFF"></path>
            <path d="M13.839,26.74 C13.839,26.8133337 13.8225002,26.8554999 13.7895,26.8665 C13.7564998,26.8775001 13.710667,26.8683335 13.652,26.839 C13.5493328,26.7949998 13.4540004,26.7656667 13.366,26.751 C13.2779996,26.7363333 13.1753339,26.7363333 13.058,26.751 C12.8673324,26.7803335 12.7390003,26.9196654 12.673,27.169 C12.6583333,27.227667 12.6473334,27.3156661 12.64,27.433 C12.6326666,27.5503339 12.629,27.6823326 12.629,27.829 L12.629,28.379 L13.553,28.379 C13.6410004,28.379 13.6978332,28.3954998 13.7235,28.4285 C13.7491668,28.4615002 13.762,28.5183329 13.762,28.599 L13.762,29.512 C13.762,29.5926671 13.7491668,29.6494998 13.7235,29.6825 C13.6978332,29.7155002 13.6410004,29.732 13.553,29.732 L12.629,29.732 L12.629,34.385 C12.629,34.4730004 12.6125002,34.5316665 12.5795,34.561 C12.5464998,34.5903335 12.4933337,34.605 12.42,34.605 L11.397,34.605 C11.3163329,34.605 11.2613335,34.5903335 11.232,34.561 C11.2026665,34.5316665 11.188,34.4730004 11.188,34.385 L11.188,29.732 L10.418,29.732 C10.278666,29.732 10.209,29.6586674 10.209,29.512 L10.209,28.599 C10.209,28.4523326 10.278666,28.379 10.418,28.379 L11.188,28.379 L11.188,27.906 C11.188,27.5979985 11.2118331,27.2936682 11.2595,26.993 C11.3071669,26.6923318 11.395166,26.4265012 11.5235,26.1955 C11.651834,25.9644988 11.8278322,25.7811673 12.0515,25.6455 C12.2751678,25.5098327 12.5629982,25.4346667 12.915,25.42 C13.0616674,25.4126666 13.2229991,25.4199999 13.399,25.442 C13.5750009,25.4640001 13.7033329,25.4933331 13.784,25.53 C13.8353336,25.5520001 13.8683333,25.5758332 13.883,25.6015 C13.8976667,25.6271668 13.9013334,25.669333 13.894,25.728 L13.839,26.74 Z M16.4284963,34.418 C16.4284963,34.4986671 16.4156631,34.5518332 16.3899963,34.5775 C16.3643295,34.6031668 16.31483,34.616 16.2414963,34.616 L15.2184963,34.616 C15.1304959,34.616 15.0699965,34.6031668 15.0369963,34.5775 C15.0039962,34.5518332 14.9874963,34.4876672 14.9874963,34.385 L14.9874963,25.728 C14.9874963,25.6253328 15.0021629,25.5611668 15.0314963,25.5355 C15.0608298,25.5098332 15.1158293,25.497 15.1964963,25.497 L16.2414963,25.497 C16.3294968,25.497 16.3844962,25.5098332 16.4064963,25.5355 C16.4284964,25.5611668 16.4394963,25.6253328 16.4394963,25.728 L16.4394963,28.797 C16.5934971,28.6283325 16.7951618,28.4853339 17.0444963,28.368 C17.2938309,28.2506661 17.5358285,28.192 17.7704963,28.192 C18.1664983,28.192 18.5203281,28.2671659 18.8319963,28.4175 C19.1436646,28.5678341 19.4076619,28.7823319 19.6239963,29.061 C19.8403308,29.3396681 20.0071624,29.6788313 20.1244963,30.0785 C20.2418303,30.4781687 20.3004963,30.9273308 20.3004963,31.426 C20.3004963,31.9320025 20.2436636,32.388498 20.1299963,32.7955 C20.0163291,33.202502 19.8531641,33.5471653 19.6404963,33.8295 C19.4278286,34.1118347 19.1656646,34.3281659 18.8539963,34.4785 C18.5423281,34.6288341 18.1848317,34.704 17.7814963,34.704 C17.6494957,34.704 17.517497,34.6856669 17.3854963,34.649 C17.2534957,34.6123331 17.1269969,34.564667 17.0059963,34.506 C16.8849957,34.447333 16.7731635,34.3776671 16.6704963,34.297 C16.5678292,34.2163329 16.4871633,34.1356671 16.4284963,34.055 L16.4284963,34.418 Z M17.6164963,29.512 C17.4478288,29.512 17.2919971,29.546833 17.1489963,29.6165 C17.0059956,29.686167 16.8794969,29.7961659 16.7694963,29.9465 C16.6594958,30.0968341 16.57333,30.2929988 16.5109963,30.535 C16.4486627,30.7770012 16.4174963,31.0739982 16.4174963,31.426 C16.4174963,31.763335 16.4523293,32.0548321 16.5219963,32.3005 C16.5916634,32.5461679 16.6814958,32.7478325 16.7914963,32.9055 C16.9014969,33.0631675 17.0279956,33.1804996 17.1709963,33.2575 C17.3139971,33.3345004 17.4624956,33.373 17.6164963,33.373 C17.9684981,33.373 18.2581619,33.2226682 18.4854963,32.922 C18.7128308,32.6213318 18.8264963,32.1226702 18.8264963,31.426 C18.8264963,30.7659967 18.7164974,30.2820015 18.4964963,29.974 C18.2764952,29.6659985 17.9831648,29.512 17.6164963,29.512 L17.6164963,29.512 Z M22.6699927,35.474 C22.3913246,35.474 22.1566603,35.3786676 21.9659927,35.188 C21.7753251,34.9973324 21.6799927,34.7626681 21.6799927,34.484 C21.6799927,34.2053319 21.7753251,33.9706676 21.9659927,33.78 C22.1566603,33.5893324 22.3913246,33.494 22.6699927,33.494 C22.9486607,33.494 23.1833251,33.5893324 23.3739927,33.78 C23.5646603,33.9706676 23.6599927,34.2053319 23.6599927,34.484 C23.6599927,34.7626681 23.5646603,34.9973324 23.3739927,35.188 C23.1833251,35.3786676 22.9486607,35.474 22.6699927,35.474 L22.6699927,35.474 Z M29.340489,34.561 C29.2598219,34.5976668 29.1589896,34.6306665 29.037989,34.66 C28.9169884,34.6893335 28.7849897,34.7131666 28.641989,34.7315 C28.4989883,34.7498334 28.3504898,34.7608333 28.196489,34.7645 C28.0424882,34.7681667 27.895823,34.7626667 27.756489,34.748 C27.2944867,34.7113332 26.8856575,34.6050009 26.529989,34.429 C26.1743206,34.2529991 25.8754902,34.0238347 25.633489,33.7415 C25.3914878,33.4591653 25.2081563,33.1273352 25.083489,32.746 C24.9588217,32.3646648 24.896489,31.9503356 24.896489,31.503 C24.896489,31.0336643 24.9698216,30.601002 25.116489,30.205 C25.2631564,29.808998 25.470321,29.4680014 25.737989,29.182 C26.005657,28.8959986 26.3283205,28.6741675 26.705989,28.5165 C27.0836576,28.3588325 27.5034867,28.28 27.965489,28.28 C28.1781567,28.28 28.4109877,28.2946665 28.663989,28.324 C28.9169903,28.3533335 29.1498213,28.4046663 29.362489,28.478 C29.4284893,28.5000001 29.466989,28.5256665 29.477989,28.555 C29.4889891,28.5843335 29.4908224,28.6393329 29.483489,28.72 L29.373489,29.567 C29.3588223,29.6550004 29.3349892,29.7136665 29.301989,29.743 C29.2689888,29.7723335 29.1974896,29.7686669 29.087489,29.732 C28.9334882,29.673333 28.7464901,29.6311668 28.526489,29.6055 C28.3064879,29.5798332 28.1121565,29.5706666 27.943489,29.578 C27.4374865,29.5926667 27.0469904,29.7741649 26.771989,30.1225 C26.4969876,30.4708351 26.359489,30.9309971 26.359489,31.503 C26.359489,32.0530028 26.4896544,32.496665 26.749989,32.834 C27.0103236,33.171335 27.3751533,33.3656664 27.844489,33.417 C28.0791568,33.4536669 28.3119879,33.4591668 28.542989,33.4335 C28.7739902,33.4078332 28.9774881,33.365667 29.153489,33.307 C29.2708229,33.2703331 29.3423222,33.2611666 29.367989,33.2795 C29.3936558,33.2978334 29.4101556,33.3473329 29.417489,33.428 L29.483489,34.275 C29.4908224,34.3630004 29.4853224,34.4234998 29.466989,34.4565 C29.4486556,34.4895002 29.4064893,34.5243332 29.340489,34.561 L29.340489,34.561 Z M35.4609853,33.747 C35.1896507,34.0916684 34.8651539,34.3501658 34.4874853,34.5225 C34.1098168,34.6948342 33.6899877,34.781 33.2279853,34.781 C32.7439829,34.781 32.3204872,34.6930009 31.9574853,34.517 C31.5944835,34.3409991 31.2901532,34.1045015 31.0444853,33.8075 C30.7988174,33.5104985 30.6136526,33.164002 30.4889853,32.768 C30.3643181,32.371998 30.3019853,31.9540022 30.3019853,31.514 C30.3019853,31.0739978 30.3624847,30.656002 30.4834853,30.26 C30.6044859,29.863998 30.7878174,29.5175015 31.0334853,29.2205 C31.2791532,28.9234985 31.5853168,28.6888342 31.9519853,28.5165 C32.3186538,28.3441658 32.7439829,28.258 33.2279853,28.258 C33.7119878,28.258 34.1373168,28.3459991 34.5039853,28.522 C34.8706538,28.6980009 35.1768174,28.9344985 35.4224853,29.2315 C35.6681532,29.5285015 35.8533181,29.8731647 35.9779853,30.2655 C36.1026526,30.6578353 36.1649853,31.0739978 36.1649853,31.514 C36.1649853,31.9466688 36.1044859,32.3554981 35.9834853,32.7405 C35.8624847,33.1255019 35.6883198,33.4609986 35.4609853,33.747 L35.4609853,33.747 Z M33.2279853,29.545 C32.9859841,29.545 32.7733196,29.6018328 32.5899853,29.7155 C32.4066511,29.8291672 32.2544859,29.9776657 32.1334853,30.161 C32.0124847,30.3443342 31.920819,30.5533322 31.8584853,30.788 C31.7961517,31.0226678 31.7649853,31.2646654 31.7649853,31.514 C31.7649853,31.7633346 31.7961517,32.0053322 31.8584853,32.24 C31.920819,32.4746678 32.0124847,32.6854991 32.1334853,32.8725 C32.2544859,33.0595009 32.4066511,33.2098328 32.5899853,33.3235 C32.7733196,33.4371672 32.9859841,33.494 33.2279853,33.494 C33.4773199,33.494 33.6936511,33.4371672 33.8769853,33.3235 C34.0603196,33.2098328 34.2124847,33.0595009 34.3334853,32.8725 C34.4544859,32.6854991 34.5443184,32.4746678 34.6029853,32.24 C34.6616523,32.0053322 34.6909853,31.7633346 34.6909853,31.514 C34.6909853,31.2719988 34.6616523,31.0336678 34.6029853,30.799 C34.5443184,30.5643322 34.4544859,30.3535009 34.3334853,30.1665 C34.2124847,29.9794991 34.0603196,29.8291672 33.8769853,29.7155 C33.6936511,29.6018328 33.4773199,29.545 33.2279853,29.545 L33.2279853,29.545 Z M44.5514817,34.605 C44.4708146,34.605 44.4121485,34.5885002 44.3754817,34.5555 C44.3388148,34.5224998 44.3204817,34.4620004 44.3204817,34.374 L44.3204817,30.678 C44.3204817,30.3846652 44.2398158,30.1481676 44.0784817,29.9685 C43.9171475,29.7888324 43.7154829,29.699 43.4734817,29.699 C43.2901474,29.699 43.1251491,29.7411662 42.9784817,29.8255 C42.8318143,29.9098338 42.7071489,30.0253326 42.6044817,30.172 C42.5018145,30.3186674 42.422982,30.4873324 42.3679817,30.678 C42.3129814,30.8686676 42.2854817,31.0666656 42.2854817,31.272 L42.2854817,34.385 C42.2854817,34.5316674 42.2158157,34.605 42.0764817,34.605 L41.0424817,34.605 C40.9618146,34.605 40.9031485,34.5885002 40.8664817,34.5555 C40.8298148,34.5224998 40.8114817,34.4620004 40.8114817,34.374 L40.8114817,30.678 C40.8114817,30.3333316 40.743649,30.0840008 40.6079817,29.93 C40.4723143,29.7759992 40.2761496,29.699 40.0194817,29.699 C39.6674799,29.699 39.388816,29.8181655 39.1834817,30.0565 C38.9781473,30.2948345 38.8754817,30.5789983 38.8754817,30.909 L38.8754817,34.385 C38.8754817,34.4730004 38.8608152,34.5316665 38.8314817,34.561 C38.8021482,34.5903335 38.7471487,34.605 38.6664817,34.605 L37.6434817,34.605 C37.5554812,34.605 37.4968152,34.5866669 37.4674817,34.55 C37.4381482,34.5133332 37.4234817,34.4546671 37.4234817,34.374 L37.4234817,30.073 L37.4234817,29.2425 C37.4234817,28.9674986 37.4161484,28.7566674 37.4014817,28.61 C37.3868149,28.5293329 37.3959815,28.4725002 37.4289817,28.4395 C37.4619818,28.4064998 37.5334811,28.39 37.6434817,28.39 L38.6664817,28.39 C38.7471487,28.39 38.7984816,28.3973333 38.8204817,28.412 C38.8424818,28.4266667 38.8534817,28.4669997 38.8534817,28.533 L38.8534817,28.984 C39.0148158,28.8153325 39.2109805,28.666834 39.4419817,28.5385 C39.6729828,28.410166 39.9058138,28.346 40.1404817,28.346 C40.4924834,28.346 40.8243135,28.4376658 41.1359817,28.621 C41.4476499,28.8043343 41.6878142,29.0499985 41.8564817,29.358 C41.9518155,29.218666 42.0618144,29.0866673 42.1864817,28.962 C42.311149,28.8373327 42.444981,28.7273338 42.5879817,28.632 C42.7309824,28.5366662 42.8849809,28.459667 43.0499817,28.401 C43.2149825,28.342333 43.3854808,28.313 43.5614817,28.313 C43.8914833,28.313 44.192147,28.3606662 44.4634817,28.456 C44.7348164,28.5513338 44.9676474,28.6906658 45.1619817,28.874 C45.356316,29.0573343 45.5066478,29.282832 45.6129817,29.5505 C45.7193155,29.818168 45.7724817,30.1243316 45.7724817,30.469 L45.7724817,34.385 C45.7724817,34.4730004 45.7559818,34.5316665 45.7229817,34.561 C45.6899815,34.5903335 45.6331487,34.605 45.5524817,34.605 L44.5514817,34.605 Z M48.240978,35.21 C48.2116445,35.2760003 48.1768115,35.3181666 48.136478,35.3365 C48.0961445,35.3548334 48.046645,35.364 47.987978,35.364 L46.865978,35.364 C46.7853109,35.364 46.7248115,35.3475002 46.684478,35.3145 C46.6441445,35.2814998 46.6386445,35.2210004 46.667978,35.133 L49.516978,26.146 C49.5463115,26.0653329 49.6049776,26.025 49.692978,26.025 L50.891978,26.025 C51.0606455,26.025 51.1229782,26.0983326 51.078978,26.245 L48.240978,35.21 Z M56.3634743,34.605 C56.2754739,34.605 56.2186411,34.5958334 56.1929743,34.5775 C56.1673076,34.5591666 56.1361412,34.5096671 56.0994743,34.429 L54.5374743,31.294 L53.5254743,31.294 L53.5254743,34.374 C53.5254743,34.4766672 53.5108078,34.5408332 53.4814743,34.5665 C53.4521409,34.5921668 53.3971414,34.605 53.3164743,34.605 L52.2494743,34.605 C52.1761406,34.605 52.1211412,34.5921668 52.0844743,34.5665 C52.0478075,34.5408332 52.0294743,34.4766672 52.0294743,34.374 L52.0294743,26.355 C52.0294743,26.2669996 52.0496408,26.2083335 52.0899743,26.179 C52.1303079,26.1496665 52.1798074,26.135 52.2384743,26.135 L54.4494743,26.135 C54.8601431,26.135 55.232306,26.1863328 55.5659743,26.289 C55.8996427,26.3916672 56.1838065,26.5493323 56.4184743,26.762 C56.6531422,26.9746677 56.8346404,27.2404984 56.9629743,27.5595 C57.0913083,27.8785016 57.1554743,28.2579978 57.1554743,28.698 C57.1554743,29.2260026 57.0418088,29.6751648 56.8144743,30.0455 C56.5871399,30.4158352 56.2864762,30.7073323 55.9124743,30.92 L57.6944743,34.319 C57.7531413,34.4290005 57.7751411,34.5041665 57.7604743,34.5445 C57.7458076,34.5848335 57.6834749,34.605 57.5734743,34.605 L56.3634743,34.605 Z M53.5254743,27.488 L53.5254743,29.952 L54.2624743,29.952 C54.7024765,29.952 55.0434731,29.8511677 55.2854743,29.6495 C55.5274756,29.4478323 55.6484743,29.1270022 55.6484743,28.687 C55.6484743,28.290998 55.5513087,27.9921677 55.3569743,27.7905 C55.16264,27.5888323 54.9114759,27.488 54.6034743,27.488 L53.5254743,27.488 Z M63.6609707,31.734 C63.6536373,31.8220004 63.6334708,31.8898331 63.6004707,31.9375 C63.5674705,31.9851669 63.5069711,32.009 63.4189707,32.009 L59.9759707,32.009 C60.0273043,32.5003358 60.183136,32.8633322 60.4434707,33.098 C60.7038053,33.3326678 61.0136356,33.4573333 61.3729707,33.472 C61.7103057,33.4866667 62.0054694,33.4536671 62.2584707,33.373 C62.5114719,33.2923329 62.7553028,33.1786674 62.9899707,33.032 C63.0926379,32.9659997 63.1623038,32.9476665 63.1989707,32.977 C63.2356375,33.0063335 63.2539707,33.0833327 63.2539707,33.208 L63.2539707,34.033 C63.2539707,34.1136671 63.2448041,34.1686665 63.2264707,34.198 C63.2081373,34.2273335 63.165971,34.2676664 63.0999707,34.319 C62.887303,34.4656674 62.6178056,34.5756663 62.2914707,34.649 C61.9651357,34.7223337 61.6443056,34.759 61.3289707,34.759 C60.4489663,34.759 59.7541399,34.4766695 59.2444707,33.912 C58.7348015,33.3473305 58.4799707,32.5443385 58.4799707,31.503 C58.4799707,31.1143314 58.5313035,30.7256686 58.6339707,30.337 C58.7366379,29.9483314 58.9016362,29.5981682 59.1289707,29.2865 C59.3563052,28.9748318 59.634969,28.7218343 59.9649707,28.5275 C60.2949723,28.3331657 60.6873017,28.236 61.1419707,28.236 C61.603973,28.236 61.9944691,28.3203325 62.3134707,28.489 C62.6324723,28.6576675 62.892803,28.8849986 63.0944707,29.171 C63.2961384,29.4570014 63.4409702,29.7888314 63.5289707,30.1665 C63.6169711,30.5441686 63.6609707,30.9456645 63.6609707,31.371 L63.6609707,31.734 Z M61.1749707,29.512 C61.0209699,29.512 60.8779713,29.5486663 60.7459707,29.622 C60.61397,29.6953337 60.4984712,29.7906661 60.3994707,29.908 C60.3004702,30.0253339 60.2143044,30.1609992 60.1409707,30.315 C60.067637,30.4690008 60.0199708,30.6303325 59.9979707,30.799 L62.2309707,30.799 C62.2309707,30.6523326 62.2071376,30.5020008 62.1594707,30.348 C62.1118038,30.1939992 62.0458044,30.0565006 61.9614707,29.9355 C61.8771369,29.8144994 61.7689713,29.7136671 61.6369707,29.633 C61.50497,29.5523329 61.3509716,29.512 61.1749707,29.512 L61.1749707,29.512 Z M68.274467,34.627 C68.2084667,34.627 68.1663004,34.6196667 68.147967,34.605 C68.1296336,34.5903333 68.120467,34.5463337 68.120467,34.473 L68.120467,34 C67.9957997,34.198001 67.7923018,34.366666 67.509967,34.506 C67.2276323,34.645334 66.9471351,34.715 66.668467,34.715 C66.3677988,34.715 66.0781351,34.6728338 65.799467,34.5885 C65.520799,34.5041662 65.2916346,34.3721676 65.111967,34.1925 C64.9322995,34.0128324 64.7911342,33.7965013 64.688467,33.5435 C64.5857998,33.2904987 64.534467,33.0026683 64.534467,32.68 C64.534467,32.2986648 64.6261328,31.9540015 64.809467,31.646 C64.9928013,31.3379985 65.2366322,31.0978342 65.540967,30.9255 C65.8453019,30.7531658 66.2064649,30.6285004 66.624467,30.5515 C67.0424691,30.4744996 67.5044645,30.4506665 68.010467,30.48 C67.9664668,29.9006638 67.717136,29.581667 67.262467,29.523 C67.1157996,29.5083333 66.9673011,29.5119999 66.816967,29.534 C66.6666329,29.5560001 66.5199677,29.5908331 66.376967,29.6385 C66.2339663,29.6861669 66.0964677,29.7411664 65.964467,29.8035 C65.8324664,29.8658336 65.7151342,29.9299997 65.612467,29.996 C65.4584662,30.0986672 65.3484673,30.15 65.282467,30.15 C65.2164667,30.15 65.183467,30.0766674 65.183467,29.93 L65.183467,29.017 C65.183467,28.9216662 65.1926336,28.8538335 65.210967,28.8135 C65.2293004,28.7731665 65.2824666,28.7310002 65.370467,28.687 C65.5904681,28.5769995 65.8489655,28.4743338 66.145967,28.379 C66.4429685,28.2836662 66.7931317,28.236 67.196467,28.236 C67.9444708,28.236 68.5036318,28.4266648 68.873967,28.808 C69.2443022,29.1893352 69.429467,29.7796627 69.429467,30.579 L69.429467,33.087 L69.429467,33.4005 C69.429467,33.5141672 69.4313003,33.6296661 69.434967,33.747 C69.4386337,33.8643339 69.4423003,33.9761661 69.445967,34.0825 C69.4496337,34.1888339 69.4551336,34.2823329 69.462467,34.363 C69.4771338,34.5096674 69.4698005,34.5903333 69.440467,34.605 C69.4111335,34.6196667 69.3598007,34.627 69.286467,34.627 L68.274467,34.627 Z M68.120467,31.591 C67.7024649,31.5983334 67.3578017,31.6294997 67.086467,31.6845 C66.8151323,31.7395003 66.5969678,31.8146662 66.431967,31.91 C66.2669662,32.0053338 66.155134,32.1189993 66.096467,32.251 C66.0378001,32.3830007 66.008467,32.5296659 66.008467,32.691 C66.008467,32.9256678 66.078133,33.107166 66.217467,33.2355 C66.356801,33.363834 66.5511324,33.428 66.800467,33.428 C67.196469,33.428 67.5136325,33.2831681 67.751967,32.9935 C67.9903015,32.7038319 68.1131336,32.2363366 68.120467,31.591 L68.120467,31.591 Z M71.1499634,34.594 C71.083963,34.594 71.0381301,34.5793335 71.0124634,34.55 C70.9867966,34.5206665 70.9739634,34.4620004 70.9739634,34.374 L70.9739634,25.783 C70.9739634,25.6949996 70.9849632,25.6363335 71.0069634,25.607 C71.0289635,25.5776665 71.0766297,25.563 71.1499634,25.563 L72.2389634,25.563 C72.3122971,25.563 72.3617966,25.5776665 72.3874634,25.607 C72.4131301,25.6363335 72.4259634,25.6949996 72.4259634,25.783 L72.4259634,34.374 C72.4259634,34.4620004 72.4131301,34.5206665 72.3874634,34.55 C72.3617966,34.5793335 72.3122971,34.594 72.2389634,34.594 L71.1499634,34.594 Z M81.9674597,34.418 C81.9381262,34.5060004 81.9087932,34.5591666 81.8794597,34.5775 C81.8501262,34.5958334 81.7914601,34.605 81.7034597,34.605 L80.6254597,34.605 C80.5374592,34.605 80.4769599,34.5940001 80.4439597,34.572 C80.4109595,34.5499999 80.3834598,34.4986671 80.3614597,34.418 L78.7554597,28.335 L77.0174597,34.418 C76.9954596,34.4986671 76.9679599,34.5499999 76.9349597,34.572 C76.9019595,34.5940001 76.8414601,34.605 76.7534597,34.605 L75.6864597,34.605 C75.6057926,34.605 75.5489599,34.5958334 75.5159597,34.5775 C75.4829595,34.5591666 75.4517932,34.5060004 75.4224597,34.418 L73.1014597,26.388 C73.0721262,26.2853328 73.0666263,26.2175002 73.0849597,26.1845 C73.1032931,26.1514998 73.1674591,26.135 73.2774597,26.135 L74.3334597,26.135 C74.4067934,26.135 74.4617928,26.1404999 74.4984597,26.1515 C74.5351265,26.1625001 74.5607929,26.197333 74.5754597,26.256 L76.3024597,32.306 L77.9524597,26.3 C77.9744598,26.2193329 78.0037928,26.1716667 78.0404597,26.157 C78.0771265,26.1423333 78.1357926,26.135 78.2164597,26.135 L79.2834597,26.135 C79.3641268,26.135 79.4246262,26.1423333 79.4649597,26.157 C79.5052932,26.1716667 79.5364596,26.2193329 79.5584597,26.3 L81.1974597,32.306 L82.9244597,26.278 C82.9391264,26.2119997 82.9611262,26.1716667 82.9904597,26.157 C83.0197932,26.1423333 83.0747926,26.135 83.1554597,26.135 L84.2114597,26.135 C84.3141269,26.135 84.3764596,26.1533332 84.3984597,26.19 C84.4204598,26.2266669 84.4167932,26.2926662 84.3874597,26.388 L81.9674597,34.418 Z M89.814956,33.747 C89.5436213,34.0916684 89.2191246,34.3501658 88.841456,34.5225 C88.4637875,34.6948342 88.0439583,34.781 87.581956,34.781 C87.0979536,34.781 86.6744578,34.6930009 86.311456,34.517 C85.9484542,34.3409991 85.6441239,34.1045015 85.398456,33.8075 C85.1527881,33.5104985 84.9676233,33.164002 84.842956,32.768 C84.7182887,32.371998 84.655956,31.9540022 84.655956,31.514 C84.655956,31.0739978 84.7164554,30.656002 84.837456,30.26 C84.9584566,29.863998 85.1417881,29.5175015 85.387456,29.2205 C85.6331239,28.9234985 85.9392875,28.6888342 86.305956,28.5165 C86.6726245,28.3441658 87.0979536,28.258 87.581956,28.258 C88.0659584,28.258 88.4912875,28.3459991 88.857956,28.522 C89.2246245,28.6980009 89.5307881,28.9344985 89.776456,29.2315 C90.0221239,29.5285015 90.2072887,29.8731647 90.331956,30.2655 C90.4566233,30.6578353 90.518956,31.0739978 90.518956,31.514 C90.518956,31.9466688 90.4584566,32.3554981 90.337456,32.7405 C90.2164554,33.1255019 90.0422905,33.4609986 89.814956,33.747 L89.814956,33.747 Z M87.581956,29.545 C87.3399548,29.545 87.1272903,29.6018328 86.943956,29.7155 C86.7606218,29.8291672 86.6084566,29.9776657 86.487456,30.161 C86.3664554,30.3443342 86.2747897,30.5533322 86.212456,30.788 C86.1501224,31.0226678 86.118956,31.2646654 86.118956,31.514 C86.118956,31.7633346 86.1501224,32.0053322 86.212456,32.24 C86.2747897,32.4746678 86.3664554,32.6854991 86.487456,32.8725 C86.6084566,33.0595009 86.7606218,33.2098328 86.943956,33.3235 C87.1272903,33.4371672 87.3399548,33.494 87.581956,33.494 C87.8312906,33.494 88.0476218,33.4371672 88.230956,33.3235 C88.4142903,33.2098328 88.5664554,33.0595009 88.687456,32.8725 C88.8084566,32.6854991 88.8982891,32.4746678 88.956956,32.24 C89.015623,32.0053322 89.044956,31.7633346 89.044956,31.514 C89.044956,31.2719988 89.015623,31.0336678 88.956956,30.799 C88.8982891,30.5643322 88.8084566,30.3535009 88.687456,30.1665 C88.5664554,29.9794991 88.4142903,29.8291672 88.230956,29.7155 C88.0476218,29.6018328 87.8312906,29.545 87.581956,29.545 L87.581956,29.545 Z M94.8024524,29.765 C94.6631183,29.706333 94.5347863,29.6715001 94.4174524,29.6605 C94.3001184,29.6494999 94.1974528,29.6586665 94.1094524,29.688 C93.9334515,29.746667 93.7922862,29.8419993 93.6859524,29.974 C93.5796185,30.1060007 93.4989526,30.2599991 93.4439524,30.436 C93.3889521,30.6120009 93.3541191,30.7953324 93.3394524,30.986 C93.3247856,31.1766676 93.3174524,31.3599991 93.3174524,31.536 L93.3174524,34.374 C93.3174524,34.4620004 93.3046192,34.5224998 93.2789524,34.5555 C93.2532856,34.5885002 93.2001194,34.605 93.1194524,34.605 L92.0634524,34.605 C91.9827853,34.605 91.9314525,34.5903335 91.9094524,34.561 C91.8874522,34.5316665 91.8764524,34.4656672 91.8764524,34.363 L91.8764524,30.007 C91.8764524,29.7723322 91.8727857,29.526668 91.8654524,29.27 C91.858119,29.0133321 91.8544524,28.8006675 91.8544524,28.632 C91.8544524,28.5366662 91.8691189,28.4743335 91.8984524,28.445 C91.9277858,28.4156665 91.9827853,28.401 92.0634524,28.401 L93.1194524,28.401 C93.2294529,28.401 93.2844524,28.4596661 93.2844524,28.577 L93.2844524,28.995 C93.3797862,28.855666 93.500785,28.7200007 93.6474524,28.588 C93.7941198,28.4559993 93.9481182,28.3753335 94.1094524,28.346 C94.2634531,28.3166665 94.4156183,28.3074999 94.5659524,28.3185 C94.7162864,28.3295001 94.8317853,28.364333 94.9124524,28.423 C94.9491192,28.4523335 94.9729523,28.4798332 94.9839524,28.5055 C94.9949524,28.5311668 95.0004524,28.573333 95.0004524,28.632 L95.0004524,29.589 C95.0004524,29.6696671 94.9857858,29.7283332 94.9564524,29.765 C94.9271189,29.8016669 94.8757861,29.8016669 94.8024524,29.765 L94.8024524,29.765 Z M96.0059487,34.594 C95.9399484,34.594 95.8941155,34.5793335 95.8684487,34.55 C95.8427819,34.5206665 95.8299487,34.4620004 95.8299487,34.374 L95.8299487,25.783 C95.8299487,25.6949996 95.8409486,25.6363335 95.8629487,25.607 C95.8849488,25.5776665 95.932615,25.563 96.0059487,25.563 L97.0949487,25.563 C97.1682824,25.563 97.2177819,25.5776665 97.2434487,25.607 C97.2691155,25.6363335 97.2819487,25.6949996 97.2819487,25.783 L97.2819487,34.374 C97.2819487,34.4620004 97.2691155,34.5206665 97.2434487,34.55 C97.2177819,34.5793335 97.1682824,34.594 97.0949487,34.594 L96.0059487,34.594 Z M102.423445,34.055 C102.364778,34.1356671 102.284112,34.2163329 102.181445,34.297 C102.078778,34.3776671 101.966946,34.447333 101.845945,34.506 C101.724944,34.564667 101.598446,34.6123331 101.466445,34.649 C101.334444,34.6856669 101.202446,34.704 101.070445,34.704 C100.263774,34.704 99.6422805,34.4125029 99.205945,33.8295 C98.7696095,33.2464971 98.551445,32.4453384 98.551445,31.426 C98.551445,30.9273308 98.6101111,30.4781687 98.727445,30.0785 C98.8447789,29.6788313 99.0116106,29.3396681 99.227945,29.061 C99.4442794,28.7823319 99.7082768,28.5678341 100.019945,28.4175 C100.331613,28.2671659 100.685443,28.192 101.081445,28.192 C101.316113,28.192 101.55811,28.2506661 101.807445,28.368 C102.05678,28.4853339 102.258444,28.6283325 102.412445,28.797 L102.412445,25.728 C102.412445,25.6253328 102.423445,25.5611668 102.445445,25.5355 C102.467445,25.5098332 102.522445,25.497 102.610445,25.497 L103.655445,25.497 C103.736112,25.497 103.791112,25.5098332 103.820445,25.5355 C103.849779,25.5611668 103.864445,25.6253328 103.864445,25.728 L103.864445,34.385 C103.864445,34.4876672 103.847945,34.5518332 103.814945,34.5775 C103.781945,34.6031668 103.721445,34.616 103.633445,34.616 L102.610445,34.616 C102.537111,34.616 102.487612,34.6031668 102.461945,34.5775 C102.436278,34.5518332 102.423445,34.4986671 102.423445,34.418 L102.423445,34.055 Z M101.235445,29.512 C100.868777,29.512 100.575446,29.6659985 100.355445,29.974 C100.135444,30.2820015 100.025445,30.7659967 100.025445,31.426 C100.025445,32.1226702 100.139111,32.6213318 100.366445,32.922 C100.593779,33.2226682 100.883443,33.373 101.235445,33.373 C101.389446,33.373 101.537944,33.3345004 101.680945,33.2575 C101.823946,33.1804996 101.950444,33.0631675 102.060445,32.9055 C102.170446,32.7478325 102.260278,32.5461679 102.329945,32.3005 C102.399612,32.0548321 102.434445,31.763335 102.434445,31.426 C102.434445,31.0739982 102.403279,30.7770012 102.340945,30.535 C102.278611,30.2929988 102.192446,30.0968341 102.082445,29.9465 C101.972444,29.7961659 101.844112,29.686167 101.697445,29.6165 C101.550778,29.546833 101.396779,29.512 101.235445,29.512 L101.235445,29.512 Z M110.061941,34.605 C109.973941,34.605 109.917108,34.5958334 109.891441,34.5775 C109.865775,34.5591666 109.834608,34.5096671 109.797941,34.429 L108.235941,31.294 L107.223941,31.294 L107.223941,34.374 C107.223941,34.4766672 107.209275,34.5408332 107.179941,34.5665 C107.150608,34.5921668 107.095608,34.605 107.014941,34.605 L105.947941,34.605 C105.874608,34.605 105.819608,34.5921668 105.782941,34.5665 C105.746275,34.5408332 105.727941,34.4766672 105.727941,34.374 L105.727941,26.355 C105.727941,26.2669996 105.748108,26.2083335 105.788441,26.179 C105.828775,26.1496665 105.878274,26.135 105.936941,26.135 L108.147941,26.135 C108.55861,26.135 108.930773,26.1863328 109.264441,26.289 C109.59811,26.3916672 109.882274,26.5493323 110.116941,26.762 C110.351609,26.9746677 110.533107,27.2404984 110.661441,27.5595 C110.789775,27.8785016 110.853941,28.2579978 110.853941,28.698 C110.853941,29.2260026 110.740276,29.6751648 110.512941,30.0455 C110.285607,30.4158352 109.984943,30.7073323 109.610941,30.92 L111.392941,34.319 C111.451608,34.4290005 111.473608,34.5041665 111.458941,34.5445 C111.444275,34.5848335 111.381942,34.605 111.271941,34.605 L110.061941,34.605 Z M107.223941,27.488 L107.223941,29.952 L107.960941,29.952 C108.400944,29.952 108.74194,29.8511677 108.983941,29.6495 C109.225943,29.4478323 109.346941,29.1270022 109.346941,28.687 C109.346941,28.290998 109.249776,27.9921677 109.055441,27.7905 C108.861107,27.5888323 108.609943,27.488 108.301941,27.488 L107.223941,27.488 Z M117.359438,31.734 C117.352104,31.8220004 117.331938,31.8898331 117.298938,31.9375 C117.265938,31.9851669 117.205438,32.009 117.117438,32.009 L113.674438,32.009 C113.725771,32.5003358 113.881603,32.8633322 114.141938,33.098 C114.402272,33.3326678 114.712103,33.4573333 115.071438,33.472 C115.408773,33.4866667 115.703936,33.4536671 115.956938,33.373 C116.209939,33.2923329 116.45377,33.1786674 116.688438,33.032 C116.791105,32.9659997 116.860771,32.9476665 116.897438,32.977 C116.934105,33.0063335 116.952438,33.0833327 116.952438,33.208 L116.952438,34.033 C116.952438,34.1136671 116.943271,34.1686665 116.924938,34.198 C116.906604,34.2273335 116.864438,34.2676664 116.798438,34.319 C116.58577,34.4656674 116.316273,34.5756663 115.989938,34.649 C115.663603,34.7223337 115.342773,34.759 115.027438,34.759 C114.147433,34.759 113.452607,34.4766695 112.942938,33.912 C112.433268,33.3473305 112.178438,32.5443385 112.178438,31.503 C112.178438,31.1143314 112.229771,30.7256686 112.332438,30.337 C112.435105,29.9483314 112.600103,29.5981682 112.827438,29.2865 C113.054772,28.9748318 113.333436,28.7218343 113.663438,28.5275 C113.993439,28.3331657 114.385769,28.236 114.840438,28.236 C115.30244,28.236 115.692936,28.3203325 116.011938,28.489 C116.330939,28.6576675 116.59127,28.8849986 116.792938,29.171 C116.994605,29.4570014 117.139437,29.7888314 117.227438,30.1665 C117.315438,30.5441686 117.359438,30.9456645 117.359438,31.371 L117.359438,31.734 Z M114.873438,29.512 C114.719437,29.512 114.576438,29.5486663 114.444438,29.622 C114.312437,29.6953337 114.196938,29.7906661 114.097938,29.908 C113.998937,30.0253339 113.912771,30.1609992 113.839438,30.315 C113.766104,30.4690008 113.718438,30.6303325 113.696438,30.799 L115.929438,30.799 C115.929438,30.6523326 115.905605,30.5020008 115.857938,30.348 C115.810271,30.1939992 115.744271,30.0565006 115.659938,29.9355 C115.575604,29.8144994 115.467438,29.7136671 115.335438,29.633 C115.203437,29.5523329 115.049439,29.512 114.873438,29.512 L114.873438,29.512 Z M121.972934,34.627 C121.906934,34.627 121.864767,34.6196667 121.846434,34.605 C121.828101,34.5903333 121.818934,34.5463337 121.818934,34.473 L121.818934,34 C121.694267,34.198001 121.490769,34.366666 121.208434,34.506 C120.926099,34.645334 120.645602,34.715 120.366934,34.715 C120.066266,34.715 119.776602,34.6728338 119.497934,34.5885 C119.219266,34.5041662 118.990102,34.3721676 118.810434,34.1925 C118.630766,34.0128324 118.489601,33.7965013 118.386934,33.5435 C118.284267,33.2904987 118.232934,33.0026683 118.232934,32.68 C118.232934,32.2986648 118.3246,31.9540015 118.507934,31.646 C118.691268,31.3379985 118.935099,31.0978342 119.239434,30.9255 C119.543769,30.7531658 119.904932,30.6285004 120.322934,30.5515 C120.740936,30.4744996 121.202932,30.4506665 121.708934,30.48 C121.664934,29.9006638 121.415603,29.581667 120.960934,29.523 C120.814267,29.5083333 120.665768,29.5119999 120.515434,29.534 C120.3651,29.5560001 120.218435,29.5908331 120.075434,29.6385 C119.932433,29.6861669 119.794935,29.7411664 119.662934,29.8035 C119.530933,29.8658336 119.413601,29.9299997 119.310934,29.996 C119.156933,30.0986672 119.046934,30.15 118.980934,30.15 C118.914934,30.15 118.881934,30.0766674 118.881934,29.93 L118.881934,29.017 C118.881934,28.9216662 118.891101,28.8538335 118.909434,28.8135 C118.927767,28.7731665 118.980934,28.7310002 119.068934,28.687 C119.288935,28.5769995 119.547433,28.4743338 119.844434,28.379 C120.141436,28.2836662 120.491599,28.236 120.894934,28.236 C121.642938,28.236 122.202099,28.4266648 122.572434,28.808 C122.942769,29.1893352 123.127934,29.7796627 123.127934,30.579 L123.127934,33.087 L123.127934,33.4005 C123.127934,33.5141672 123.129767,33.6296661 123.133434,33.747 C123.137101,33.8643339 123.140767,33.9761661 123.144434,34.0825 C123.148101,34.1888339 123.153601,34.2823329 123.160934,34.363 C123.175601,34.5096674 123.168268,34.5903333 123.138934,34.605 C123.109601,34.6196667 123.058268,34.627 122.984934,34.627 L121.972934,34.627 Z M121.818934,31.591 C121.400932,31.5983334 121.056269,31.6294997 120.784934,31.6845 C120.513599,31.7395003 120.295435,31.8146662 120.130434,31.91 C119.965433,32.0053338 119.853601,32.1189993 119.794934,32.251 C119.736267,32.3830007 119.706934,32.5296659 119.706934,32.691 C119.706934,32.9256678 119.7766,33.107166 119.915934,33.2355 C120.055268,33.363834 120.249599,33.428 120.498934,33.428 C120.894936,33.428 121.2121,33.2831681 121.450434,32.9935 C121.688769,32.7038319 121.811601,32.2363366 121.818934,31.591 L121.818934,31.591 Z M128.92943,34.561 C128.848763,34.5976668 128.747931,34.6306665 128.62693,34.66 C128.50593,34.6893335 128.373931,34.7131666 128.23093,34.7315 C128.08793,34.7498334 127.939431,34.7608333 127.78543,34.7645 C127.63143,34.7681667 127.484764,34.7626667 127.34543,34.748 C126.883428,34.7113332 126.474599,34.6050009 126.11893,34.429 C125.763262,34.2529991 125.464432,34.0238347 125.22243,33.7415 C124.980429,33.4591653 124.797098,33.1273352 124.67243,32.746 C124.547763,32.3646648 124.48543,31.9503356 124.48543,31.503 C124.48543,31.0336643 124.558763,30.601002 124.70543,30.205 C124.852098,29.808998 125.059262,29.4680014 125.32693,29.182 C125.594598,28.8959986 125.917262,28.6741675 126.29493,28.5165 C126.672599,28.3588325 127.092428,28.28 127.55443,28.28 C127.767098,28.28 127.999929,28.2946665 128.25293,28.324 C128.505932,28.3533335 128.738763,28.4046663 128.95143,28.478 C129.017431,28.5000001 129.05593,28.5256665 129.06693,28.555 C129.07793,28.5843335 129.079764,28.6393329 129.07243,28.72 L128.96243,29.567 C128.947764,29.6550004 128.923931,29.7136665 128.89093,29.743 C128.85793,29.7723335 128.786431,29.7686669 128.67643,29.732 C128.52243,29.673333 128.335431,29.6311668 128.11543,29.6055 C127.895429,29.5798332 127.701098,29.5706666 127.53243,29.578 C127.026428,29.5926667 126.635932,29.7741649 126.36093,30.1225 C126.085929,30.4708351 125.94843,30.9309971 125.94843,31.503 C125.94843,32.0530028 126.078596,32.496665 126.33893,32.834 C126.599265,33.171335 126.964095,33.3656664 127.43343,33.417 C127.668098,33.4536669 127.900929,33.4591668 128.13193,33.4335 C128.362932,33.4078332 128.566429,33.365667 128.74243,33.307 C128.859764,33.2703331 128.931264,33.2611666 128.95693,33.2795 C128.982597,33.2978334 128.999097,33.3473329 129.00643,33.428 L129.07243,34.275 C129.079764,34.3630004 129.074264,34.4234998 129.05593,34.4565 C129.037597,34.4895002 128.995431,34.5243332 128.92943,34.561 L128.92943,34.561 Z M133.311927,34.528 C133.165259,34.5940003 132.989261,34.6508331 132.783927,34.6985 C132.578592,34.7461669 132.343928,34.7663334 132.079927,34.759 C131.808592,34.7516666 131.562928,34.683834 131.342927,34.5555 C131.122926,34.427166 130.961594,34.2713343 130.858927,34.088 C130.75626,33.8753323 130.693927,33.635168 130.671927,33.3675 C130.649927,33.099832 130.638927,32.7533355 130.638927,32.328 L130.638927,29.732 L129.857927,29.732 C129.718593,29.732 129.648927,29.6586674 129.648927,29.512 L129.648927,28.599 C129.648927,28.4523326 129.718593,28.379 129.857927,28.379 L130.638927,28.379 L130.638927,26.916 C130.638927,26.7693326 130.712259,26.696 130.858927,26.696 L131.870927,26.696 C132.010261,26.696 132.079927,26.7693326 132.079927,26.916 L132.079927,28.379 L133.014927,28.379 C133.102927,28.379 133.15976,28.3954998 133.185427,28.4285 C133.211094,28.4615002 133.223927,28.5183329 133.223927,28.599 L133.223927,29.512 C133.223927,29.5926671 133.211094,29.6494998 133.185427,29.6825 C133.15976,29.7155002 133.102927,29.732 133.014927,29.732 L132.079927,29.732 L132.079927,32.196 L132.079927,32.8395 C132.079927,33.0045008 132.08726,33.1126664 132.101927,33.164 C132.13126,33.303334 132.193593,33.3913332 132.288927,33.428 C132.384261,33.4646669 132.486926,33.4756667 132.596927,33.461 C132.706927,33.4463333 132.81326,33.4206669 132.915927,33.384 C133.018594,33.3473331 133.09926,33.3143335 133.157927,33.285 C133.216594,33.2556665 133.260593,33.2538332 133.289927,33.2795 C133.31926,33.3051668 133.337593,33.3583329 133.344927,33.439 L133.443927,34.264 C133.45126,34.3300003 133.447593,34.3831665 133.432927,34.4235 C133.41826,34.4638335 133.377927,34.4986665 133.311927,34.528 L133.311927,34.528 Z" id="fb.com/RealWorldReac" fill="#FFFFFF"></path>
        </g>
    </g>
</svg>